<svg xmlns="http://www.w3.org/2000/svg" viewBox="0 0 450.82 273.79"><style>.st0,.st1,.st2,.st3,.st4,.st5,.st6{fill:none;stroke:#fff;stroke-miterlimit:10}.st1,.st2,.st3,.st4,.st5,.st6{stroke-dasharray:1.92,1.92}.st2,.st3,.st4,.st5,.st6{stroke-dasharray:1.9253,1.9253}.st3,.st4,.st5,.st6{stroke-dasharray:2.0841,2.0841}.st4,.st5,.st6{stroke-dasharray:2.0846,2.0846}.st5,.st6{stroke-dasharray:1.921,1.921}.st6{stroke-dasharray:2.0417,2.0417}.st9{fill:#fff}.st11{fill:#2d2d2d}.st12{fill:none;stroke:#231f20;stroke-width:4;stroke-miterlimit:10}</style><path class="st0" d="m310.66 87.57.87-.5.86.5"/><path class="st1" d="m314.06 88.53 39.07 22.56"/><path class="st0" d="m353.96 111.57.87.5v1"/><path class="st2" d="M354.83 114.99v45.24"/><path class="st0" d="M354.83 161.2v1-.11l-.87.5"/><path class="st1" d="m352.3 163.55-39.08 22.56"/><path class="st0" d="m312.39 186.59-.86.5-.87-.5"/><path class="st1" d="m309 185.63-39.08-22.56"/><path class="st0" d="m269.09 162.59-.86-.5-.87.5"/><path class="st1" d="m265.7 163.55-39.08 22.56"/><path class="st0" d="m225.79 186.59-.87.5-.86-.5"/><path class="st1" d="m222.4 185.63-39.08-22.56"/><path class="st0" d="m182.49 162.59-.87-.5-.86.5"/><path class="st1" d="m179.09 163.55-39.07 22.56"/><path class="st0" d="m139.19 186.59-.87.5s-.3-.18-.86-.5"/><path class="st1" d="M135.8 185.63c-7.96-4.6-32.41-18.71-39.08-22.56"/><path class="st0" d="M95.88 162.59c-.56-.32-.86-.5-.86-.5v.11-1"/><path class="st2" d="M95.02 159.27v-45.24"/><path class="st0" d="M95.02 113.07v-1l.87-.5"/><path class="st1" d="m97.55 110.61 39.07-22.56"/><path class="st0" d="m137.46 87.57.86-.5.87.5"/><path class="st1" d="m140.85 88.53 39.08 22.56"/><path class="st0" d="m180.76 111.57.86.5.87-.5"/><path class="st1" d="m184.15 110.61 39.08-22.56"/><path class="st0" d="m224.06 87.57.86-.5.87.5"/><path class="st1" d="m227.45 88.53 39.08 22.56"/><path class="st0" d="m267.36 111.57.87.5.86-.5"/><path class="st1" d="m270.75 110.61 39.08-22.56"/><path class="st0" d="m312.39 36.57-.86.5-.87-.5"/><path class="st1" d="m309 35.61-39.08-22.56"/><path class="st0" d="m269.09 12.57-.86-.5-.87.5"/><path class="st1" d="m265.7 13.53-39.08 22.56"/><path class="st0" d="m225.79 36.57-.87.5-.86-.5"/><path class="st1" d="m222.4 35.61-39.08-22.56"/><path class="st0" d="m182.49 12.57-.87-.5-.86.5"/><path class="st1" d="m179.09 13.53-39.07 22.56"/><path class="st0" d="m139.19 36.57-.87.5-.86-.5"/><path class="st1" d="M135.79 35.61 96.72 13.05"/><path class="st0" d="m95.89 12.57-.87-.5-.87.5"/><path class="st1" d="M92.49 13.53 53.42 36.09"/><path class="st0" d="m52.58 36.57-.86.5v1"/><path class="st2" d="M51.72 39.99v45.24"/><path class="st0" d="M51.72 86.2v1l-.87.5"/><path class="st1" d="m49.19 88.66-39.08 22.56"/><path class="st0" d="m9.28 111.7-.86.5v1"/><path class="st1" d="M8.42 115.12v45.12"/><path class="st0" d="M8.42 161.2v1l.86.5"/><path class="st1" d="m10.95 163.66 39.07 22.56"/><path class="st0" d="m50.85 186.7.87.5v-.11 1"/><path class="st1" d="M51.72 190.01v45.12"/><path class="st0" d="M51.72 236.09v1l.86.5"/><path class="st1" d="m54.25 238.55 39.07 22.56"/><path class="st0" d="m94.15 261.59.87.5s.3-.18.86-.5"/><path class="st1" d="M97.54 260.63c7.96-4.6 32.41-18.71 39.08-22.56"/><path class="st0" d="M137.46 237.59c.56-.32.86-.5.86-.5l.87.5"/><path class="st1" d="m140.85 238.55 39.08 22.56"/><path class="st0" d="m180.76 261.59.86.5.87-.5"/><path class="st1" d="m184.15 260.63 39.08-22.56"/><path class="st0" d="m224.06 237.59.86-.5.87.5"/><path class="st1" d="m227.45 238.55 39.08 22.56"/><path class="st0" d="m267.36 261.59.87.5.86-.5"/><path class="st1" d="m270.75 260.63 39.08-22.56"/><path class="st0" d="m310.66 237.59.87-.5.86.5"/><path class="st1" d="m314.06 238.55 39.07 22.56"/><path class="st0" d="m353.96 261.59.87.5.86-.5"/><path class="st1" d="m357.36 260.63 39.07-22.56"/><path class="st0" d="m397.26 237.59.87-.5v-1"/><path class="st1" d="M398.13 234.17v-45.12"/><path class="st0" d="M398.13 188.09v-1 .11l.87-.5"/><path class="st1" d="m400.66 185.74 39.07-22.56"/><path class="st0" d="m440.56 162.7.87-.5v-1"/><path class="st1" d="M441.43 159.28v-45.12"/><path class="st0" d="M441.43 113.2v-1l-.87-.5"/><path class="st1" d="m438.9 110.74-39.07-22.56"/><path class="st0" d="m399 87.7-.87-.5v-1"/><path class="st2" d="M398.13 84.27V39.03"/><path class="st0" d="M398.13 38.07v-1l-.87-.5"/><path class="st1" d="m395.6 35.61-39.07-22.56"/><path class="st0" d="m355.69 12.57-.86-.5-.87.5"/><path class="st1" d="m352.3 13.53-39.08 22.56"/><path class="st0" d="m51.72 87.2.87.5"/><path class="st3" d="m54.39 88.73 38.86 22.32"/><path class="st0" d="m94.15 111.57.87.5M138.32 37.07v1"/><path class="st1" d="M138.32 39.99v45.12"/><path class="st0" d="M138.32 86.07v1M224.92 37.07v1"/><path class="st1" d="M224.92 39.99v45.12"/><path class="st0" d="M224.92 86.07v1M311.53 37.07v1"/><path class="st1" d="M311.53 39.99v45.12"/><path class="st0" d="M311.53 86.07v1M398.13 87.2l-.87.5"/><path class="st3" d="m395.45 88.73-38.85 22.32"/><path class="st0" d="m355.69 111.57-.86.5M398.13 187.09l-.87-.5"/><path class="st4" d="m395.45 185.55-38.85-22.33"/><path class="st0" d="m355.69 162.7-.86-.5M311.53 187.09v1"/><path class="st1" d="M311.53 190.01v45.12"/><path class="st0" d="M311.53 236.09v1M224.92 187.09v1"/><path class="st1" d="M224.92 190.01v45.12"/><path class="st0" d="M224.92 236.09v1M138.32 187.09v1"/><path class="st1" d="M138.32 190.01v45.12"/><path class="st0" d="M138.32 236.09v1M95.02 162.2l-.87.5"/><path class="st4" d="m92.35 163.74-38.86 22.33"/><path class="st0" d="m52.59 186.59-.87.5M181.62 112.07v1"/><path class="st5" d="M181.62 114.99v45.14"/><path class="st0" d="M181.62 161.09v1M268.23 112.07v1"/><path class="st5" d="M268.23 114.99v45.14"/><path class="st0" d="M268.23 161.09v1M181.62 41.67v1"/><path class="st6" d="M181.62 44.71v35.73"/><path class="st0" d="M181.62 81.46v1M199.29 51.87l-.87.5"/><path class="st6" d="m196.65 53.39-30.94 17.86"/><path class="st0" d="m164.83 71.76-.87.5M163.96 51.87l.87.5"/><path class="st6" d="m166.59 53.39 30.95 17.86"/><path class="st0" d="m198.42 71.76.87.5M95.02 41.67v1"/><path class="st6" d="M95.02 44.71v35.73"/><path class="st0" d="M95.02 81.46v1M112.68 51.87l-.86.5"/><path class="st6" d="M110.05 53.39 79.11 71.25"/><path class="st0" d="m78.22 71.76-.86.5M77.36 51.87l.86.5"/><path class="st6" d="m79.99 53.39 30.94 17.86"/><path class="st0" d="m111.82 71.76.86.5M138.21 116.47v1"/><path class="st6" d="M138.21 119.51v35.73"/><path class="st0" d="M138.21 156.26v1M155.87 126.67l-.87.5"/><path class="st6" d="m153.24 128.19-30.95 17.86"/><path class="st0" d="m121.41 146.56-.87.5M120.54 126.67l.87.5"/><path class="st6" d="m123.18 128.19 30.94 17.86"/><path class="st0" d="m155 146.56.87.5M51.65 116.47v1"/><path class="st6" d="M51.65 119.51v35.73"/><path class="st0" d="M51.65 156.26v1M69.32 126.67l-.87.5"/><path class="st6" d="m66.68 128.19-30.94 17.86"/><path class="st0" d="m34.85 146.56-.86.5M33.99 126.67l.86.5"/><path class="st6" d="m36.62 128.19 30.95 17.86"/><path class="st0" d="m68.45 146.56.87.5M95.02 191.91v1"/><path class="st6" d="M95.02 194.95v35.73"/><path class="st0" d="M95.02 231.7v1M112.68 202.11l-.86.5"/><path class="st6" d="m110.05 203.63-30.94 17.86"/><path class="st0" d="m78.22 222-.86.5M77.36 202.11l.86.5"/><path class="st6" d="m79.99 203.63 30.94 17.86"/><path class="st0" d="m111.82 222 .86.5M181.62 191.51v1"/><path class="st6" d="M181.62 194.55v35.73"/><path class="st0" d="M181.62 231.3v1M199.29 201.71l-.87.5"/><path class="st6" d="m196.65 203.23-30.94 17.86"/><path class="st0" d="m164.83 221.6-.87.5M163.96 201.71l.87.5"/><path class="st6" d="m166.59 203.23 30.95 17.86"/><path class="st0" d="m198.42 221.6.87.5M224.95 116.47v1"/><path class="st6" d="M224.95 119.51v35.73"/><path class="st0" d="M224.95 156.26v1M242.61 126.67l-.87.5"/><path class="st6" d="m239.98 128.19-30.95 17.86"/><path class="st0" d="m208.15 146.56-.87.5M207.28 126.67l.87.5"/><path class="st6" d="m209.92 128.19 30.94 17.86"/><path class="st0" d="m241.74 146.56.87.5M311.64 116.47v1"/><path class="st6" d="M311.64 119.51v35.73"/><path class="st0" d="M311.64 156.26v1M329.3 126.67l-.86.5"/><path class="st6" d="m326.67 128.19-30.94 17.86"/><path class="st0" d="m294.84 146.56-.86.5M293.98 126.67l.86.5"/><path class="st6" d="m296.61 128.19 30.94 17.86"/><path class="st0" d="m328.44 146.56.86.5M268.23 41.67v1"/><path class="st6" d="M268.23 44.71v35.73"/><path class="st0" d="M268.23 81.46v1M285.89 51.87l-.87.5"/><path class="st6" d="m283.25 53.39-30.94 17.86"/><path class="st0" d="m251.43 71.76-.87.5M250.56 51.87l.87.5"/><path class="st6" d="m253.2 53.39 30.94 17.86"/><path class="st0" d="m285.02 71.76.87.5M354.62 42.03v1"/><path class="st6" d="M354.62 45.07V80.8"/><path class="st0" d="M354.62 81.82v1M372.28 52.23l-.86.5"/><path class="st6" d="m369.65 53.75-30.94 17.86"/><path class="st0" d="m337.82 72.12-.86.5M336.96 52.23l.86.5"/><path class="st6" d="m339.59 53.75 30.94 17.86"/><path class="st0" d="m371.42 72.12.86.5M398.24 116.74v1"/><path class="st6" d="M398.24 119.78v35.73"/><path class="st0" d="M398.24 156.53v1M415.91 126.93l-.87.5"/><path class="st6" d="m413.27 128.45-30.94 17.87"/><path class="st0" d="m381.45 146.83-.87.5M380.58 126.93l.87.5"/><path class="st6" d="m383.21 128.45 30.95 17.87"/><path class="st0" d="m415.04 146.83.87.5M354.83 191.33v1"/><path class="st6" d="M354.83 194.38v35.73"/><path class="st0" d="M354.83 231.13v1M372.49 201.53l-.86.5"/><path class="st6" d="m369.86 203.05-30.95 17.87"/><path class="st0" d="m338.03 221.43-.87.5M337.16 201.53l.87.5"/><path class="st6" d="m339.8 203.05 30.94 17.87"/><path class="st0" d="m371.63 221.43.86.5M268.5 191.69v1"/><path class="st6" d="M268.5 194.74v35.73"/><path class="st0" d="M268.5 231.49v1M286.16 201.89l-.86.5"/><path class="st6" d="m283.53 203.41-30.94 17.87"/><path class="st0" d="m251.7 221.79-.86.5M250.84 201.89l.86.5"/><path class="st6" d="m253.47 203.41 30.94 17.87"/><path class="st0" d="m285.3 221.79.86.5"/><path style="fill:#f06b8b;stroke:#fff;stroke-width:3;stroke-miterlimit:10" d="m95.11 179.24-28.5 16.45v32.91l28.5 16.45 28.5-16.45v-32.91z"/><path style="fill:#70d8ac" d="m182.04 179.24-28.5 16.45v32.91l28.5 16.45 28.5-16.45v-32.91z"/><path class="st9" d="m138.32 104.02-28.5 16.46v32.91l28.5 16.45 28.5-16.45v-32.91zM95.11 28.68l-28.5 16.46v32.9l28.5 16.46 28.5-16.46v-32.9zM268.35 28.68l-28.5 16.46v32.9l28.5 16.46 28.5-16.46v-32.9zM356.07 28.68l-28.5 16.46v32.9l28.5 16.46 28.5-16.46v-32.9z"/><path style="fill:#4da3d3" d="m268.59 179.24-28.5 16.45v32.91l28.5 16.45 28.5-16.45v-32.91z"/><path class="st11" d="M128.3 125.19h4.18l7.86 21.03h-4.5l-1.48-4.26h-8.18l-1.48 4.26h-4.23l7.83-21.03zm-.93 13.37h5.8l-2.9-8.3-2.9 8.3zM146.69 146.6c-2.99 0-5.63-1.74-5.63-4.58 0-3.68 4.15-4.79 10.27-5.48v-.26c0-2.41-1.31-3.25-2.93-3.25-1.54 0-2.81.81-2.9 2.52h-3.74c.29-3.07 2.84-5.34 6.85-5.34 3.71 0 6.73 1.6 6.73 6.87 0 .49-.06 2.55-.06 3.97 0 2.46.17 3.86.46 5.16h-3.68c-.12-.49-.2-1.19-.26-1.94-1.11 1.63-2.76 2.33-5.11 2.33zm4.75-7.51c-4.47.46-6.27.99-6.27 2.73 0 1.13.9 2.06 2.7 2.06 2.49 0 3.57-1.36 3.57-3.63v-1.16z"/><path class="st9" d="m311.6 104.02-28.5 16.46v32.91l28.5 16.45 28.5-16.45v-32.91z"/><path class="st11" d="M305.84 140.85h-6.49l-1.49 5.37h-3.43l6.3-20.43h3.94l6.3 20.43h-3.67l-1.46-5.37zm-5.72-2.71h4.97l-2.41-8.77h-.14l-2.42 8.77zM313.84 141.8c0-2.78 2.01-4.42 5.72-4.65l3.88-.23v-1.3c0-1.6-1.03-2.51-2.85-2.51-1.52 0-2.62.65-2.96 1.78h-3.23c.28-2.68 2.79-4.45 6.27-4.45 3.84 0 6.02 1.88 6.02 5.2v10.56h-3.13v-2.17h-.3c-.75 1.54-2.41 2.42-4.52 2.42-2.93.03-4.9-1.84-4.9-4.65zm9.6-1.23v-1.42l-3.38.18c-1.94.11-2.95.89-2.95 2.27 0 1.34 1.05 2.18 2.7 2.18 2.1.01 3.63-1.34 3.63-3.21zM224.49 104.02l-28.5 16.46v32.91l28.5 16.45 28.5-16.45v-32.91z"/><path class="st9" d="M214.47 125.19h4.18l7.86 21.03h-4.5l-1.48-4.26h-8.18l-1.48 4.26h-4.23l7.83-21.03zm-.93 13.37h5.8l-2.9-8.3-2.9 8.3zM232.85 146.6c-2.99 0-5.63-1.74-5.63-4.58 0-3.68 4.15-4.79 10.27-5.48v-.26c0-2.41-1.31-3.25-2.93-3.25-1.54 0-2.81.81-2.9 2.52h-3.74c.29-3.07 2.84-5.34 6.85-5.34 3.71 0 6.73 1.6 6.73 6.87 0 .49-.06 2.55-.06 3.97 0 2.46.17 3.86.46 5.16h-3.68c-.12-.49-.2-1.19-.26-1.94-1.1 1.63-2.76 2.33-5.11 2.33zm4.76-7.51c-4.47.46-6.27.99-6.27 2.73 0 1.13.9 2.06 2.7 2.06 2.5 0 3.57-1.36 3.57-3.63v-1.16z"/><path class="st12" d="m268.35 49.54-12 20.79h24zM346.07 51.59h20v20h-20z"/><circle class="st12" cx="95.11" cy="61.59" r="11.5"/></svg>