<svg width="31" height="29" fill="none" xmlns="http://www.w3.org/2000/svg"><path d="M24.66 18.814a5.484 5.484 0 0 0 5.474-5.481c0-2.877-2.238-5.283-5.095-5.479a.363.363 0 0 1-.336-.342A7.155 7.155 0 0 0 17.557.723a7.192 7.192 0 0 0-6.485 4.136.362.362 0 0 1-.465.18 7.116 7.116 0 0 0-2.719-.537c-3.95 0-7.165 3.215-7.165 7.165 0 3.59 2.66 6.661 6.188 7.141a.36.36 0 0 1 .31.407.358.358 0 0 1-.408.31C2.928 18.995 0 15.617 0 11.666 0 7.317 3.539 3.78 7.888 3.78c.918 0 1.818.158 2.678.47A7.918 7.918 0 0 1 17.556 0a7.88 7.88 0 0 1 7.847 7.162c3.084.37 5.456 3.02 5.456 6.17 0 3.422-2.781 6.207-6.2 6.207a3.24 3.24 0 0 1-.098-.005c-.195-.015-.374-.184-.363-.38.01-.196.125-.366.339-.347l.123.007Z" fill="#000"/><path d="m15.43 29-6.283-6.282.51-.512 5.41 5.41V11.412h.724v16.204l5.409-5.41.512.512L15.43 29Z" fill="#000"/></svg>