<svg width="31" height="27" fill="none" xmlns="http://www.w3.org/2000/svg"><path d="M24.763 18.9c3.04 0 5.511-2.47 5.511-5.507 0-2.89-2.253-5.307-5.13-5.504a.364.364 0 0 1-.338-.344 7.188 7.188 0 0 0-7.178-6.82 7.226 7.226 0 0 0-6.516 4.155.364.364 0 0 1-.467.183 7.154 7.154 0 0 0-2.732-.54C3.951 4.523.727 7.752.727 11.72c0 3.608 2.668 6.692 6.205 7.175.198.026.338.21.31.408a.355.355 0 0 1-.41.311C2.939 19.085 0 15.691 0 11.721c0-4.37 3.55-7.925 7.912-7.925.923 0 1.826.159 2.692.473A7.955 7.955 0 0 1 17.626 0a7.915 7.915 0 0 1 7.881 7.195C28.612 7.566 31 10.23 31 13.394c.001 3.436-2.797 6.233-6.237 6.233l-.098-.005c-.197-.015-.376-.184-.366-.381.01-.194.142-.348.334-.348h.008l.122.007Z" fill="#000"/><path d="M15.864 26.6h-.726V10.322l-5.435 5.435-.513-.514 6.311-6.311 6.312 6.31-.515.515-5.434-5.435V26.6Z" fill="#000"/></svg>