<svg width="31" height="31" fill="none" xmlns="http://www.w3.org/2000/svg"><path d="M4.504 31A4.495 4.495 0 0 1 0 26.492c0-1.208.467-2.34 1.316-3.189l7.805-7.805-7.805-7.805A4.477 4.477 0 0 1 0 4.504c0-1.208.467-2.34 1.316-3.188A4.475 4.475 0 0 1 4.504 0c1.208 0 2.34.467 3.189 1.316l7.806 7.805 7.804-7.804A4.477 4.477 0 0 1 26.492 0a4.48 4.48 0 0 1 3.19 1.316 4.515 4.515 0 0 1 0 6.377l-7.806 7.804 7.805 7.805a4.516 4.516 0 0 1 0 6.378 4.516 4.516 0 0 1-6.378 0l-7.805-7.806-7.805 7.806A4.49 4.49 0 0 1 4.504 31Zm0-30.274A3.756 3.756 0 0 0 1.83 1.83 3.76 3.76 0 0 0 .726 4.504c0 1.014.392 1.964 1.103 2.675l8.057 8.057a.369.369 0 0 1 .005.519L1.83 23.818a3.753 3.753 0 0 0-1.103 2.674c0 1.013.392 1.963 1.103 2.675a3.785 3.785 0 0 0 5.35 0l8.062-8.062a.362.362 0 0 1 .514 0l8.063 8.062a3.787 3.787 0 0 0 5.35 0 3.787 3.787 0 0 0 0-5.35l-8.062-8.063a.362.362 0 0 1 0-.514l8.062-8.062a3.787 3.787 0 0 0 0-5.35A3.764 3.764 0 0 0 26.493.726a3.753 3.753 0 0 0-2.674 1.103l-8.063 8.062a.362.362 0 0 1-.514 0L7.18 1.83A3.763 3.763 0 0 0 4.504.726Z" fill="#000"/></svg>