<svg width="31" height="27" fill="none" xmlns="http://www.w3.org/2000/svg"><path d="M15.5 26.734a.363.363 0 0 1-.258-.106L2.358 13.744A7.982 7.982 0 0 1 0 8.064C0 5.906.837 3.88 2.358 2.358A8.003 8.003 0 0 1 8.048 0h.002a8 8 0 0 1 5.694 2.358l1.755 1.756 1.756-1.756A7.999 7.999 0 0 1 22.948 0h.008a8.003 8.003 0 0 1 5.686 2.358A8 8 0 0 1 31 8.051a8 8 0 0 1-2.358 5.693L15.757 26.628a.365.365 0 0 1-.258.106ZM8.05.727h-.002a7.276 7.276 0 0 0-5.175 2.146A7.29 7.29 0 0 0 .727 8.064c0 1.948.762 3.783 2.146 5.165L15.5 25.856l12.626-12.627a7.274 7.274 0 0 0 2.145-5.178 7.274 7.274 0 0 0-2.145-5.178 7.28 7.28 0 0 0-5.17-2.146h-.009c-1.955 0-3.795.761-5.178 2.146l-2.013 2.013a.364.364 0 0 1-.515 0l-2.013-2.013A7.27 7.27 0 0 0 8.05.727Z" fill="#000"/></svg>