<svg width="31" height="21" fill="none" xmlns="http://www.w3.org/2000/svg"><path d="M4.198 20.458h-.055a4.221 4.221 0 0 1-3.58-2.1A4.21 4.21 0 0 1 0 16.306a4.206 4.206 0 0 1 2.1-3.682L22.674.744A5.507 5.507 0 0 1 25.61.004a5.518 5.518 0 0 1 4.646 2.773 5.53 5.53 0 0 1 .742 2.933 5.52 5.52 0 0 1-2.774 4.649l-16.798 9.698-.364-.628 16.8-9.699a4.803 4.803 0 0 0 2.411-4.042 4.823 4.823 0 0 0-.646-2.547A4.799 4.799 0 0 0 25.59.73a4.718 4.718 0 0 0-2.551.644L2.464 13.252a3.479 3.479 0 0 0-1.737 3.046c.006.593.167 1.18.466 1.698a3.49 3.49 0 0 0 2.96 1.735c.625.054 1.241-.15 1.783-.465l15.819-9.133a2.127 2.127 0 0 0 1.06-1.823 2.103 2.103 0 0 0-.284-1.073 2.104 2.104 0 0 0-1.788-1.06 2.068 2.068 0 0 0-1.107.284L7.592 13.413l-.363-.628L19.273 5.83a2.853 2.853 0 0 1 1.486-.38c1.002.022 1.9.554 2.4 1.422.255.44.387.938.383 1.442a2.856 2.856 0 0 1-1.424 2.445l-15.82 9.134a4.196 4.196 0 0 1-2.1.564Z" fill="#000"/></svg>