<svg width="31" height="31" fill="none" xmlns="http://www.w3.org/2000/svg"><path d="M25.59 30.998a5.417 5.417 0 0 1-5.396-5.045h-7.62l-4.96 2.975a.364.364 0 0 1-.55-.311v-2.664h-1.15A5.92 5.92 0 0 1 0 20.04a5.92 5.92 0 0 1 5.913-5.914h6.458l4.959-2.975a.364.364 0 0 1 .55.312v2.663h7.206a5.193 5.193 0 0 0 5.187-5.186 5.193 5.193 0 0 0-5.187-5.187h-2.422l-4.959 2.976a.364.364 0 0 1-.55-.312V3.753H5.51L.55 6.729A.364.364 0 0 1 0 6.417V.363A.361.361 0 0 1 .55.052l4.96 2.975h11.644V.363a.365.365 0 0 1 .55-.31l4.96 2.974h2.422a5.92 5.92 0 0 1 5.913 5.913 5.92 5.92 0 0 1-5.913 5.913H17.88v2.664a.363.363 0 0 1-.551.31l-4.959-2.974H5.913A5.193 5.193 0 0 0 .727 20.04a5.193 5.193 0 0 0 5.186 5.186h1.15v-2.664a.363.363 0 0 1 .55-.31l4.96 2.974h7.622a5.416 5.416 0 0 1 5.396-5.045A5.415 5.415 0 0 1 31 25.59a5.416 5.416 0 0 1-5.41 5.408Zm0-10.09a4.687 4.687 0 0 0-4.682 4.682c0 2.582 2.1 4.682 4.682 4.682 2.583 0 4.683-2.1 4.683-4.682 0-2.583-2.1-4.683-4.683-4.683ZM7.79 25.59v2.385l3.976-2.385-3.976-2.386v2.386Zm5.389-11.1 3.975 2.385v-4.772L13.18 14.49Zm4.702-11.1v2.385l3.976-2.385-3.976-2.386V3.39ZM.727 1.004v4.772L4.702 3.39.727 1.004Zm23.602 26.967a.365.365 0 0 1-.364-.364V23.57a.364.364 0 0 1 .544-.315l3.531 2.018a.363.363 0 0 1 0 .63L24.51 27.92a.339.339 0 0 1-.18.05Zm.363-3.774v2.785l2.436-1.392-2.436-1.393Z" fill="#000"/></svg>