<svg width="28" height="31" fill="none" xmlns="http://www.w3.org/2000/svg"><path d="M24 30.72H4a.36.36 0 0 1-.36-.36V4.72H0V4h8.64V.36A.36.36 0 0 1 9 0h10a.36.36 0 0 1 .36.36V4H28v.72h-3.64v25.64a.36.36 0 0 1-.36.36ZM4.36 30h19.28V4.72H4.36V30Zm5-26h9.28V.72H9.36V4Z" fill="#000"/><path d="M19 26.72a.36.36 0 0 1-.36-.36v-18a.36.36 0 1 1 .72 0v18a.36.36 0 0 1-.36.36Zm-5 0a.36.36 0 0 1-.36-.36v-18a.36.36 0 1 1 .72 0v18a.36.36 0 0 1-.36.36Zm-5 0a.36.36 0 0 1-.36-.36v-18a.36.36 0 1 1 .72 0v18a.36.36 0 0 1-.36.36Z" fill="#000"/></svg>