<svg fill="none" height="48" viewBox="0 0 48 48" width="48" xmlns="http://www.w3.org/2000/svg"><path d="m.326111.320984v47.358916h47.359189l-.0003-47.358916z" fill="#fff"/><g clip-rule="evenodd" fill-rule="evenodd"><path d="m.326111 47.6799v-47.358916h47.358689l.0002 47.358916zm43.542089-19.6645c.619-1.2757 1.7835-4.4685 1.9987-6.1925l.0024-.019c.2624-2.1045.5107-4.096-.9093-6.0749-1.0096-1.4064-2.7299-2.3501-5.3472-2.3504-1.9784 0-3.7454.536-5.1582 1.7109-1.2098-1.1973-2.945-1.7408-5.2805-1.7402-1.8275 0-3.3613.4178-4.6971 1.2197-.9696-.7704-2.1077-1.2517-3.921-1.2517-1.6438-.0003-3.9515.0853-5.6926 1.5634-.4024-.821-1.2205-1.4658-3.4773-1.4658-2.07892 0-3.77492.9834-4.88719 2.8093-1.48507 2.372-4.63733 9.2219-4.5568 12.9637.06 2.8168 2.17227 4.7574 5.232 4.8302 1.83867.0429 3.40449-.3507 4.59949-1.1438 1.0805.7787 2.4613 1.1992 3.9957 1.1992 1.8363.0003 3.4928-.4818 4.7211-1.3474 1.1128.8821 2.5728 1.3589 4.2245 1.3589 2.1429.0008 4.1341-.7392 5.7427-2.1469 1.097 1.3989 2.9765 2.1261 5.2589 2.1263 4.2728.0003 6.4923-2.6277 8.1517-6.049z" fill="#181818"/><path d="m0 48v-48h48l-.0008 47.9992zm47.3387-.6611.0005-46.6781h-46.678933l.001066 46.6779z" fill="#000"/><path d="m44.6974 14.4802c-.0003-.151.0292-.3006.0868-.4402.0577-.1396.1423-.2665.249-.3733.1068-.1068.2335-.1916.3731-.2493.1395-.0578.2891-.0875.4401-.0873.1512-.0003.3009.0293.4406.0869.1397.0577.2666.1424.3735.2493.1069.1068.1917.2337.2494.3734.0578.1397.0874.2894.0872.4405.0003.1512-.0293.3009-.087.4406-.0578.1397-.1425.2666-.2495.3734-.1069.1068-.2338.1915-.3736.2492-.1397.0576-.2894.0871-.4406.0867-.151.0002-.3006-.0294-.4402-.0871s-.2664-.1424-.3731-.2492c-.1068-.1068-.1914-.2337-.249-.3733s-.0871-.2893-.0867-.4403zm1.1496-.9219c.5114.0003.9272.412.9258.9235.0014.5115-.416.9245-.9258.9245-.1212-.0001-.2412-.0242-.3531-.0708-.1119-.0465-.2135-.1147-.299-.2006-.0855-.0858-.1533-.1877-.1994-.2998-.0461-.112-.0697-.2321-.0693-.3533-.0006-.1212.0229-.2413.0689-.3534.0461-.1121.1138-.214.1994-.2998s.1873-.1539.2993-.2003c.1119-.0463.232-.0701.3532-.07zm.4477 1.2827.1373.24-.2978.0019-.0952-.1947c-.0425-.0852-.0972-.1637-.1624-.2331-.047-.0488-.0899-.061-.1958-.061l-.0437.0002-.0005.488h-.2456v-1.1912h.5933c.2557 0 .3757.1427.3757.3315.0006.18-.121.3093-.3221.3333l.0005.0067c.1022.0355.136.0688.2563.2784zm-.6584-.7648v.3272h.2488c.1664 0 .2213-.0811.2189-.1653 0-.1051-.0834-.1627-.2456-.1627zm-11.4053 2.8437c1.1594-1.3733 2.8752-2.357 5.3562-2.357 4.2947 0 5.4182 2.808 5.2774 5.4613-.0835 1.5947-.5952 3.4944-.9776 4.6307-1.6987 5.0482-3.7387 8.2405-8.3814 8.24-2.1186.0005-4.0576-.8262-4.8216-2.9088-1.3954 1.7658-3.5282 2.9184-5.96 2.9304-1.8586.009-3.304-.6478-4.2226-1.776-1.0907 1.2037-2.9363 1.7549-4.7707 1.7554-1.648-.001-3.024-.5752-3.9272-1.556-1.0064 1.015-2.58774 1.5536-4.60188 1.5064-2.58-.0618-4.02133-1.6098-4.0688-3.7586-.07093-3.3264 3.09707-10.1936 4.40294-12.2787.90133-1.4792 2.15333-2.2053 3.81604-2.2061.9128.0008 1.8501.1594 2.4296.7733.4765.504.553.952.5882 1.8 1.4614-2.3547 3.9243-2.6747 6.184-2.6741 1.7291 0 3.1643.6472 3.7664 1.6256 1.159-.9851 2.828-1.6102 4.8302-1.6102 2.0493.0003 3.576.5003 4.5264 1.5755.2096.236.3586.4163.5544.8269zm-22.607 11.5907c.0763-.8043-.5261-1.6728-2.92958-1.2557.23867-.5347.5936-1.2675.99654-2.0995 1.29124-2.6661 3.07544-6.3504 3.10904-7.7917.0182-.7107-.2682-1.3032-1.4208-1.3027-1.2176-.0005-1.98131.5088-2.60691 1.5365-1.3568 2.1667-4.23813 8.7027-4.1776 11.5278.03413 1.6149 1.28613 2.2522 2.67733 2.2848 1.91734.0445 4.12588-.4939 4.35228-2.8998zm4.8934-3.4747c-.16.4304-.4608 1.3318-.7038 2.2856.7888-.1968 1.3795-.333 2.392-.3096 1.1544.0283 1.8931.5062 1.8926 1.4614 0 2.313-2.5582 2.9925-4.3307 2.993-1.9483 0-3.6597-1.108-3.6597-3.2384 0-2.4976 1.3536-6.2848 2.624-8.8061 1.5594-3.0976 3.1538-3.5091 5.8986-3.5091 1.207 0 2.5963.5152 2.5963 1.6544 0 1.5792-1.3355 2.1814-2.6621 2.2576-.5672.0326-1.4384.0638-1.9595.0264 0 0-.4429.6734-.9109 1.8707 2.4554-.3456 3.4976.212 3.0832 1.632-.5611 1.9197-2.2246 2.0464-4.2603 1.6819zm10.657-5.097c.324-.4542.7574-.8747 1.4222-.8747.8146 0 .7357.4309.5424.9816-.5491 1.568 1.109 1.6093 1.5138 1.5773 1.4475-.1128 2.2451-1.048 2.4414-2.641.2688-2.1691-1.5587-3.0019-3.8752-3.0019-3.8614 0-5.3771 2.3616-6.823 5.7376-.6792 1.5859-1.5346 4.296-1.5344 6.0219-.0002 2.424 1.4747 3.7384 3.8518 3.7384 3.4712 0 5.924-2.768 6.6248-6.2168.2157-1.0614.4816-3.0531-2.2144-2.9422-1.3686.0566-2.1942.3584-2.6294 1.7568-.448 1.4406 1.1768 1.4798 1.1768 1.4798-.3269 1.4893-1.284 2.3922-2.1368 2.393-.5322 0-1.0165-.2309-.8544-1.3573.2408-1.6469 1.7832-5.6528 2.4944-6.6525zm16.0046 1.9752c-.4096 2.032-1.327 4.4373-2.3238 6.2296-1.6266 2.9237-3.5997 3.3333-5.3248 3.3114-1.724-.0205-3.6677-.6562-3.6824-3.317-.0104-1.9094.8128-4.6059 1.5123-6.3715 1.22-3.2027 2.4643-5.8147 6.4027-5.768 4.5914.0536 3.7725 4.1376 3.416 5.9155zm-5.7595 5.2098c.6384-1.0813 2.4355-5.9861 2.4845-7.2125.0144-.3573-.0445-.7733-.6205-.78-.3949-.0056-.7384.0709-1.0472.548-.6939.9019-2.7251 6.4493-2.6907 7.556.0126.3979.2347.7453.7232.7453.5627.0006.8744-.3866 1.1507-.8568z" fill="#000"/></g></svg>