<svg fill="none" height="40" viewBox="0 0 77 40" width="77" xmlns="http://www.w3.org/2000/svg" xmlns:xlink="http://www.w3.org/1999/xlink"><clipPath id="a"><path d="m0 0h76.9099v40h-76.9099z"/></clipPath><mask id="b" height="40" maskUnits="userSpaceOnUse" width="77" x="0" y="0"><path d="m0 0h76.9099v39.9313h-76.9099z" fill="#fff"/></mask><mask id="c" height="40" maskUnits="userSpaceOnUse" width="26" x="0" y="0"><path d="m.171677 0h25.064423v39.8112h-25.064423z" fill="#fff"/></mask><g clip-path="url(#a)"><g mask="url(#b)"><g fill="#030328" mask="url(#c)"><path d="m24.5322 8.89269c-.3262-.08584-.6695-.18884-1.0301-.27468.1202.42919.1717.85837.1889 1.30472v.30897l-1.4936 4.0515c.7554 7.0043.3949 7.9657.2747 8.2747-.1888.4979-.7039 1.3047-1.5794 2.4893l.8412 7.897 3.0901-2.2318c.1202-.0858.2232-.206.2919-.3433.0686-.1374.103-.2919.103-.4464v-20.0858c0-.20601-.0687-.41202-.1889-.5837-.1201-.17167-.2918-.29184-.4978-.36051z"/><path d="m25.2361 29.9399c0 .1545-.0344.309-.103.4464-.0687.1373-.1717.2575-.2919.3433l-3.0901 2.2318-.8412-7.897c.8584-1.1674 1.3734-1.9914 1.5794-2.4893.1202-.309.4978-1.2704-.2747-8.2747l1.4936-4.0515v-.30899c-.0172-.44635-.0687-.87553-.1889-1.30472.3605.08584.7039.17168 1.0301.27468.206.0515.3776.18884.515.36052.1202.17167.1888.37768.1888.58369z"/><path d="m10.1631 9.32188c1.6481-.48068 3.4163-.48068 5.0644 0l.1888-.32618.2232-1.47639c-.7382-.03434-2.0086-.08584-2.9185-.08584-.9957 0-1.9742.03434-2.95275.08584l.22318 1.47639z"/><path d="m12.721 7.43347c.9099 0 2.1803.0515 2.9185.08584l-.2232 1.47639-.1888.32618c-1.6481-.48068-3.4163-.48068-5.0644 0l-.18884-.30901-.22318-1.47639c.99572-.06867 1.97422-.10301 2.96992-.10301z"/><path d="m3.2103 14.3004-1.49356-4.0515v-.30899c.01717-.44635.06867-.87553.18884-1.30472-.36051.08584-.70386.17168-1.030041.27468-.206008.0515-.377682.18884-.515021.36052-.120172.17167-.188841.37768-.188841.58369v20.10302c0 .1545.034334.309.103004.4463.068669.1374.171674.2575.291845.3434l3.107294 2.2489.85837-7.8798c-.85837-1.1846-1.39056-2.0086-1.5794-2.5065-.13734-.3433-.49785-1.2875.25751-8.309z"/><path d="m3.69099 32.9785-3.107296-2.2317c-.120172-.0859-.223176-.206-.291846-.3434-.068669-.1373-.120171-.309-.120171-.4635v-20.08582c0-.20601.068669-.41202.188841-.58369.120171-.17168.309013-.29185.515021-.36052.326181-.08584.669531-.18884 1.030041-.27468-.103.42919-.17167.85837-.18884 1.30472v.30899l1.49356 4.0515c-.75536 7.0043-.39485 7.9657-.27467 8.2747.18884.4979.72103 1.3219 1.57939 2.5064z"/><path d="m21.2704 22.1116c.2403-.618.103-3.588-.3777-7.9142v-.0686l1.5107-4.1202v-.08585c0-1.80258-2.3176-6.60945-3.6738-9.150218l-.3605-.65236c-.0172-.0343351-.0515-.0686699-.103-.0858372-.0343-.0171674-.0858-.0343348-.1373-.0171674-.0516 0-.0859.0343347-.1202.0686695-.0344.0343351-.0515.0686691-.0515.1201721l-1.3047 9.236051-.8412 1.40774-.2232-.0687c-.9271-.3262-1.9056-.4978-2.9013-.5322-.9785.0172-1.9571.206-2.88413.5322l-.22317.0687-.82404-1.40774-1.32189-9.253219c0-.051502-.03433-.085837-.0515-.1201715-.01717-.0343347-.08584-.0686695-.12017-.0686695-.0515 0-.08584 0-.13734.0171674s-.08584.0515021-.103.1030046l-.36052.65236c-1.37339 2.557938-3.67382 7.364808-3.67382 9.150218v.08585l1.51073 4.1202v.0686c-.48069 4.3262-.61802 7.2962-.37768 7.9142.22317.5665 1.08154 1.7682 1.80257 2.7124l-1.03004 9.6824 1.03004.7554.77254.5665 5.11592 3.7082c.2575.1888.5665.2918.8755.2918s.618-.103.8755-.2918l6.3176-4.5494.6352-.4635-1.0472-9.6996c.7382-.9613 1.5966-2.1459 1.8026-2.7124zm-2.5408-16.12018.1717-1.15022c0-.03433.0172-.06867.0515-.103.0343-.03434.0515-.0515.103-.0515.0343 0 .0687 0 .103.01716.0343.01717.0515.0515.0687.06867.8412 1.75107 1.648 3.69099 1.7339 4.56653 0 .03433 0 .0515-.0172.06867l-.412 1.08157c-.0172.0343-.0343.0515-.0515.0858s-.0515.0343-.0859.0343c-.0343 0-.0686 0-.0858-.0171-.0172-.0172-.0515-.0344-.0687-.0687-1.0128-1.59656-1.4077-3.86266-1.4935-4.51502-.0172.01717-.0172 0-.0172-.01716zm-4.0172 11.34768c.4636-.4636 1.3048-1.0988 2.352-1.0988 1.3905 0 .6008 1.0816.3262 1.4078-.0172.0171-.0515.0515-.0687.0515s-.0515.0171-.0859.0171h-2.3862c-.0344 0-.0859-.0171-.1202-.0343s-.0687-.0515-.0858-.103c-.0172-.0515-.0172-.0858-.0172-.1202 0-.0343.0515-.0858.0858-.1201zm1.2018 2.0085c.0343.0859.103.1717.1716.2232.0687.0515.1717.103.2575.103.1374.0172.2747-.0171.3777-.0858.1202-.0859.1889-.1889.2232-.3262-.0858 0-.1545-.0343-.206-.0858s-.103-.1202-.103-.206c0-.0515 0-.103.0172-.1545.0171-.0516.0515-.0859.0858-.1374l-.0172-.0172h.9442v.0515c0 .1717-.0171.3262-.0858.4807-.0515.1545-.1545.2919-.2747.4121-.1202.1201-.2575.206-.412.2746-.1545.0687-.309.103-.4807.103s-.3262-.0343-.4807-.103c-.1545-.0686-.2918-.1716-.3948-.2918s-.206-.2575-.2575-.412-.0859-.3262-.0687-.4807v-.0344h.927c-.103.0687-.1888.1717-.2403.2919-.0343.1373-.0343.2747.0172.3948zm-7.55369-3.1073c1.04721 0 1.88839.6352 2.35189 1.0988.0344.0343.0515.0686.0515.1201 0 .0344 0 .0859-.0171.1202-.0172.0343-.0515.0687-.0859.103-.0343.0172-.0858.0343-.1201.0343h-2.33479c-.03434 0-.06867 0-.08584-.0171-.01717-.0172-.0515-.0344-.06867-.0515-.29185-.3262-1.09871-1.4078.30901-1.4078zm.42919 2.7297c-.01717.0686-.05151.1545-.10301.1888s-.13734.0858-.20601.0858c.03434.1374.10301.2575.22318.3434.12017.0858.25751.1202.39485.103.08584-.0172.17167-.0515.24034-.103s.12017-.1202.17168-.206c.0515-.1202.06867-.2575.03433-.3777-.03433-.1202-.12017-.2404-.24034-.309h.90988.0172v.0171c0 .1717-.0172.3262-.0687.4807s-.1374.2919-.25752.4121c-.12017.1201-.25751.2231-.39485.2918-.15451.0687-.30902.103-.48069.103s-.32618-.0343-.48069-.103c-.1545-.0687-.29184-.1545-.41201-.2747-.12018-.1202-.20601-.2575-.25751-.412-.05151-.1545-.08584-.3262-.08584-.4807v-.0515h.9442l-.01716.0172c.03433.0343.06867.0858.08583.1202-.01716.0515 0 .103-.01716.1545zm-3.57082-8.4121c-.01717.0344-.03433.0515-.06867.0687-.03433.0172-.06867.0172-.08584.0172-.03433 0-.06866-.0172-.08583-.0344-.01717-.0171-.0515-.0515-.0515-.0858l-.39485-1.08154c-.01717-.01717-.01717-.0515-.01717-.06867.08584-.87554.8927-2.81545 1.7339-4.56652.01717-.03434.03434-.06867.06867-.08584.03434-.01717.06867-.01717.10301-.01717.03433 0 .06867.01717.103.0515.03434.03434.03434.06867.0515.10301l.17168 1.15021v.05151c-.13734.61802-.53219 2.90128-1.5279 4.49781zm3.0558 19.5194c-.6867-1.9056-.70387-4.5494-.70387-4.6696v-.1716l-.12017-.1374c-.29184-.3605-.65236-.824-1.01287-1.3047-.01717-.0343-.03434-.0687-.03434-.103s0-.0687 0-.103c0-.0344.03434-.0687.0515-.0859.01717-.0171.0515-.0343.08584-.0515l1.85408-.5493c.03433-.0172.06867-.0343.103-.0687l1.80255-2.0429c.0344-.0343.0687-.0515.103-.0687.0344-.0171.0859-.0171.1202 0 .0343.0172.0687.0344.103.0687s.0343.0687.0343.1202l.3091 5.8369c0 .0515-.0172.0858-.0344.1373-.1202.1889-.4807.7382-.4807 1.0816 0 .4291.6352 1.0128 1.2704 1.4592 0-.0172.0172-.0343.0172-.0515.2232-.3949.515-.4635.6523-.1717.0515.2232.0687.4635.0515.6867h.0172v.5322c0 .0343 0 .0687-.0172.103-.1201.2403-.6695 1.2361-1.854 1.2361-.515.0171-1.7511-.1545-2.31762-1.6824zm5.28752 2.2145c.0172 0 .0344 0 .0515.0172.0172.0172.0344.0172.0344.0343v.0515c0 .0172-.0172.0344-.0344.0516-.2575.206-.5837.309-.9098.309-.3262 0-.6524-.103-.9099-.309-.0172-.0172-.0172-.0344-.0343-.0516-.0172-.0171 0-.0343 0-.0515 0-.0171.0171-.0343.0343-.0343.0172-.0172.0343-.0172.0515-.0172zm1.5794.6352c-.2403.4464-.5837.8069-1.0128 1.0644-.4292.2575-.9099.3949-1.4249.3949-.5151 0-.9957-.1374-1.4249-.3949s-.7726-.6352-1.0129-1.0644c-.0172-.0343-.0343-.0686-.0343-.1201 0-.0344.0171-.0687.0343-.103.0172-.0344.0515-.0515.0858-.0859.0344-.0171.0687-.0171.1202-.0171h.1373c.1374 0 .2747-.0172.4121-.0515.0343-.0172.0858 0 .1201 0 .0344.0171.0687.0343.103.0858.1717.2403.3777.4292.6352.5665.2575.1374.5322.206.8241.206.2918 0 .5665-.0686.824-.206.2575-.1373.4807-.3262.6352-.5665.0172-.0343.0687-.0687.103-.0858.0343-.0172.0858-.0172.1202 0 .1373.0343.2918.0515.4291.0515h.1202c.0344 0 .0687 0 .103.0171.0344.0172.0687.0515.0859.0687.0171.0343.0343.0687.0343.103 0 .0687 0 .103-.0172.1373zm3.8284-9.133c-.3606.4807-.7211.927-1.0129 1.3047l-.103.1374v.1888c0 .1202 0 2.7639-.7039 4.6695-.5493 1.5279-1.8026 1.6996-2.3004 1.6996-1.1846 0-1.7339-.9957-1.8541-1.2361-.0172-.0343-.0172-.0686-.0172-.103v-.5322h.0172c-.0172-.2231 0-.4635.0515-.6866.1373-.3091.412-.2404.6524.1716 0 .0172.0171.0344.0171.0515.6352-.4635 1.2704-1.03 1.2704-1.4592 0-.3433-.3605-.8927-.4807-1.0815-.0343-.0344-.0343-.0859-.0343-.1374l.309-5.8369c0-.0515.0172-.0858.0343-.1202.0344-.0343.0687-.0686.1031-.0686.0343-.0172.0858-.0172.1201 0 .0344.0171.0859.0343.103.0686l1.7683 2.0258c.0343.0343.0686.0515.103.0687l1.8541.5493c.0343.0172.0515.0343.0858.0515.0172.0172.0343.0515.0515.0859.0172.0343.0172.0686 0 .103 0 .0171 0 .0515-.0343.0858z"/></g></g><path d="m69.2704 21.3562h-.2919v5.1502h-3.6909v-12.824l3.6909-5.7854v11.9657c.7382-.9099 3.2103-4.3262 3.2103-4.3262h4.5666l-4.3262 4.5837 4.4807 6.4034h-4.6696zm-10.3004-.8412 1.5107-4.9442h3.6566l-4.2918 10.9013c-1.2876 3.279-3.1073 5.4936-5.8541 5.4936-1.0472 0-1.9399-.2747-2.4034-.5322l1.4764-2.2833c.2232.0344.4463.0344.6695.0344 1.2704 0 2.2146-1.2189 2.8155-2.6782l-4.4979-10.9356h4.1545l1.6137 4.8756c.3091.927.5494 2.6952.5494 2.6952s.2918-1.6995.6009-2.6266zm-11.176-.2575c0-1.4249-.6352-2.0944-1.8369-2.0944-.5837 0-1.2017.1717-1.6137.412v7.9313h-3.7082v-10.8326l3.6223-.2918-.0858 1.7682h.1202c.7725-1.0472 2.1115-1.8541 3.6738-1.8541 1.8884 0 3.5364 1.1674 3.5364 3.9485v7.2618h-3.7253zm-17.7511 5.6824.3262-2.5236c1.1502.5665 2.4549.8412 3.5537.8412.7897 0 1.3218-.2747 1.3218-.7553 0-1.3906-4.9957-1.0473-4.9957-4.6696 0-2.3176 2.1288-3.5365 4.7726-3.5365 1.3219 0 2.6952.3606 3.5708.6696l-.3605 2.4721c-.9271-.3605-2.1975-.6867-3.2447-.6867-.6523 0-1.1674.2232-1.1674.6523 0 1.3734 5.0988 1.0988 5.0988 4.6181 0 2.3519-2.0945 3.691-4.9442 3.691-1.5623.0343-2.8327-.2404-3.9314-.7726z" fill="#030328"/></g></svg>