<svg fill="none" height="28" viewBox="0 0 80 28" width="80" xmlns="http://www.w3.org/2000/svg"><g fill="#000"><path d="m0 .0016v21.8512l2.8824.008v-10.4048h6.9496v-2.752h-6.9496v-5.9536h9.0512v-2.7504zm17.1208 4.4352c1.0384 0 1.88-.8208 1.88-1.8336s-.8408-1.8336-1.88-1.8336c-1.0376 0-1.88.8208-1.88 1.8336s.8424 1.8336 1.88 1.8336zm-1.4656 2.7512v14.668h2.8824v-14.668z"/><path clip-rule="evenodd" d="m29.228 6.75995c-3.828 0-6.4992 3.1576-6.4992 6.90635 0 3.7496 2.672 6.9072 6.4992 6.9072 1.752 0 3.196-.6616 4.248-1.7392v1.9528c0 2.4305-1.9576 4.4624-4.512 4.4624-.9184 0-1.8304-.3472-2.5576-.836l-1.444 2.44c1.1989.7523 2.5863 1.1498 4.0016 1.1464 4.0832 0 7.3936-3.2288 7.3936-7.2128v-13.59995h-2.8824v1.312c-1.0512-1.0776-2.4944-1.7392-4.2472-1.7392zm-3.6168 6.90635c0-2.3272 1.824-4.15595 3.9288-4.15595s3.9304 1.82875 3.9304 4.15595-1.8256 4.1568-3.9304 4.1568c-2.104 0-3.9288-1.8296-3.9288-4.1568z" fill-rule="evenodd"/><path d="m46.744 9.51035c-1.7048 0-3.0864 1.40875-3.0864 3.07195v9.2736h-2.8824v-14.66795h2.8824v1.344c.844-1.0656 2.088-1.772 3.712-1.772 2.02 0 3.5704.9784 4.468 2.476.9984-1.4464 2.6272-2.476 4.5864-2.476 3.2808 0 5.3224 2.5816 5.3424 5.77595v9.32h-2.8824v-9.2744c0-1.6624-1.3816-3.07195-3.0864-3.07195-1.704 0-3.0856 1.40955-3.0856 3.07195v9.2752h-2.8824v-9.2752c0-1.6624-1.3816-3.07195-3.0864-3.07195"/><path clip-rule="evenodd" d="m77.1176 8.85035c-1.2824-1.2904-3.0376-2.0904-5.0752-2.0904-4.288 0-7.3312 3.54155-7.3312 7.76235s3.0432 7.7624 7.3312 7.7624c2.0368 0 3.7928-.7992 5.0752-2.0904v1.6624h2.8824v-14.66875h-2.8824zm-9.524 5.67195c0-2.8 2.1984-5.01195 4.7616-5.01195 2.564 0 4.7624 2.21195 4.7624 5.01195s-2.1984 5.012-4.7624 5.012-4.7616-2.2112-4.7616-5.012z" fill-rule="evenodd"/></g></svg>