<svg width="243" height="50" viewBox="0 0 243 50" fill="none" xmlns="http://www.w3.org/2000/svg">
<g fill="#000" clip-path="url(#clip0_23_84)">
<path d="M39.2844 0H10.7156C4.79754 0 0 4.79754 0 10.7156V39.2844C0 45.2025 4.79754 50 10.7156 50H39.2844C45.2025 50 50 45.2025 50 39.2844V10.7156C50 4.79754 45.2025 0 39.2844 0Z" />
<path d="M21.4008 26.5753L39.4102 35.4371C40.6 36.0226 42 35.1711 42 33.8619V16.1384C42 14.8292 40.6 13.9777 39.4102 14.5632L21.4008 23.425C20.0819 24.074 20.0819 25.9263 21.4008 26.5753Z" fill="url(#paint0_radial_23_84)"/>
<path d="M28.5992 26.5753L10.5898 35.4371C9.39996 36.0226 8 35.1711 8 33.8619V16.1384C8 14.8292 9.39996 13.9777 10.5898 14.5632L28.5992 23.425C29.9181 24.074 29.9181 25.9263 28.5992 26.5753Z" fill="#fff"/>
<path d="M80.8787 42C70.2312 42 65 33.5964 65 22.9179C65 11.6821 70.8793 3.37143 80.6472 3.37143C83.9341 3.37143 86.5265 4.25357 88.9801 6.34286C89.6745 6.99286 90.23 6.80714 90.3226 5.925L90.5541 3.78929H91.6651L92.2669 16.9286H91.2022C89.906 9.45357 86.7117 5.41429 81.4342 5.41429C74.4439 5.41429 70.6478 12.5643 70.6478 22.3143C70.6478 32.2036 74.3976 39.7714 81.5731 39.7714C85.0451 39.7714 87.4524 37.8214 88.6097 36.0107V26.8643C88.6097 24.0321 87.4987 23.1964 79.9528 23.1964V22.0821H96.3408V23.1964C93.8409 23.1964 93.4706 23.8929 93.4706 26.8643V35.7786C90.8318 39.5393 86.3876 42 80.8787 42Z" />
<path d="M103.177 11.2643C101.418 11.2643 100.168 10.0571 100.168 8.43214C100.168 6.76072 101.418 5.55357 103.177 5.55357C104.89 5.55357 106.14 6.76072 106.14 8.43214C106.14 10.0571 104.89 11.2643 103.177 11.2643ZM105.77 16.4179V36.475C105.77 39.4464 106.233 40.1429 109.057 40.1429V41.2571H98.0388V40.1429C100.863 40.1429 101.326 39.4464 101.326 36.475V22.175C101.326 19.0643 101.279 18.4143 98.5943 19.5286L98.1777 18.4607L104.983 15.7214L105.77 16.4179Z" />
<path d="M123.698 30.8571H124.994C124.994 38.1 123.559 42 119.022 42C115.412 42 113.513 39.8179 113.513 33.3179V18.5536H110.273V16.8357C113.652 16.7429 115.782 14.2357 116.245 9.87143H117.911V16.65H123.467V18.5536H118.004V32.1107C118.004 36.2429 118.421 38.9821 120.596 38.9821C122.68 38.9821 123.698 36.3821 123.698 30.8571Z" />
<path d="M140.629 41.2571H126.602V40.1429C130.907 40.1429 131.509 39.3071 131.509 36.475V8.89643C131.509 6.06429 130.907 5.22857 126.602 5.22857V4.11429H141.092C147.851 4.11429 152.341 7.08571 152.341 13.3071C152.341 18.4607 148.962 21.4786 144.471 22.0357V22.2679C150.258 22.6393 154.054 26.2607 154.054 31.275C154.054 38.6107 148.036 41.2571 140.629 41.2571ZM136.648 7.45714V21.1071C137.805 21.2929 139.009 21.2929 140.12 21.2929C143.916 21.2929 147.249 18.8786 147.249 13.4929C147.249 8.2 143.87 6.01786 140.212 6.01786C139.333 6.01786 138.361 6.06429 137.574 6.25C136.925 6.38929 136.648 6.80714 136.648 7.45714ZM136.648 23.3821V37.9143C136.648 39.0286 137.851 39.3536 140.027 39.3536C144.379 39.3536 148.869 37.7286 148.869 31.3214C148.869 24.9143 143.731 23.1964 140.166 23.1964C138.962 23.1964 137.805 23.1964 136.648 23.3821Z" />
<path d="M171.555 42L170.629 41.2107L170.537 37.2643L170.398 37.2179C168.824 39.725 166.602 42 163.315 42C160.121 42 158.269 39.4 158.269 35.3143V22.2214C158.269 19.2036 158.13 18.6464 155.306 19.5286L154.982 18.5071L162.111 16.1857L162.759 16.7893V34.85C162.759 37.5893 163.593 38.8893 165.352 38.8893C167.204 38.8893 169.055 37.3107 170.537 35.3143V22.2214C170.537 19.2036 170.444 18.6464 167.574 19.5286L167.25 18.5071L174.425 16.1857L175.027 16.7893V35.7321C175.027 38.8429 175.12 39.4464 177.99 38.3786L178.407 39.4464L171.555 42Z" />
<path d="M192.325 30.8571H193.621C193.621 38.1 192.186 42 187.649 42C184.038 42 182.14 39.8179 182.14 33.3179V18.5536H178.9V16.8357C182.279 16.7429 184.409 14.2357 184.872 9.87143H186.538V16.65H192.093V18.5536H186.631V32.1107C186.631 36.2429 187.047 38.9821 189.223 38.9821C191.306 38.9821 192.325 36.3821 192.325 30.8571Z" />
<path d="M202.6 3.65V36.475C202.6 39.4464 203.017 40.1429 205.841 40.1429V41.2571H194.823V40.1429C197.647 40.1429 198.11 39.4464 198.11 36.475V9.63929C198.11 6.66786 198.11 6.06429 195.332 7.45714L194.869 6.43571L201.906 3L202.6 3.65Z" />
<path d="M223.373 31.3214H224.484C223.512 38.7964 220.364 42 216.012 42C210.781 42 207.494 37.0321 207.494 29.3714C207.494 22.0357 210.735 15.8143 216.244 15.8143C221.66 15.8143 224.206 20.9214 224.206 27.7H211.985V27.7929C211.985 34.1071 213.929 38.5643 217.771 38.5643C219.855 38.5643 222.262 36.9393 223.373 31.3214ZM216.244 17.7643C213.466 17.7643 212.309 21.1536 212.031 25.7964H219.762C219.762 21.3393 218.975 17.7643 216.244 17.7643Z" />
<path d="M240.5 15.8143C242.12 15.8143 243 16.7429 243 18.275C243 20.0857 241.935 21.2464 240.732 21.2464C239.898 21.2464 239.528 20.9214 238.926 20.2714C238.324 19.6679 238.093 19.4821 237.537 19.4821C236.473 19.4821 235.223 21.0143 234.251 23.8464V36.1964C234.251 39.3536 234.945 40.0964 239.158 40.0964V41.2571H226.658V40.1429C229.343 40.1429 229.806 39.4464 229.806 36.475V22.175C229.806 19.0643 229.806 18.4143 227.029 19.575L226.566 18.5071L230.269 17.0214L233.417 15.7214L234.251 16.4179V20.875H234.389C235.686 18.4143 237.954 15.8143 240.5 15.8143Z" />
</g>
<defs>
<radialGradient id="paint0_radial_23_84" cx="0" cy="0" r="1" gradientUnits="userSpaceOnUse" gradientTransform="translate(25 25) scale(17 17.2704)">
<stop stop-color="#000"/>
<stop offset="1" stop-color="#fff"/>
</radialGradient>
<clipPath id="clip0_23_84">
<rect width="243" height="50" />
</clipPath>
</defs>
</svg>
