<svg fill="none" height="32" viewBox="0 0 102 32" width="102" xmlns="http://www.w3.org/2000/svg" xmlns:xlink="http://www.w3.org/1999/xlink"><clipPath id="a"><path d="m.600098 0h101.067v32h-101.067z"/></clipPath><g clip-path="url(#a)" fill="#000"><path d="m22.9082 17.2279 1.7247-.8998v-13.4974h-1.2935l-3.1869 4.21792h-.3374l.1875-4.68658h13.7785l.1875 4.68658h-.3749l-3.1119-4.23667h-1.331v13.49735l1.7246.8998v.4687h-7.9672zm12.9913-.5999v-14.94083l-1.331-.56239v-.262448l4.8178-.862332h.5061v7.06737l.1312-.11248c1.0686-.93732 2.6058-1.51845 4.1242-1.51845 2.1184 0 3.0557 1.18102 3.0557 3.41183v7.77973l1.1248.6186v.4499h-6.2988v-.4499l1.1248-.6186v-7.81722c0-1.21851-.5249-1.70592-1.5185-1.70592-.6111-.01499-1.2072.18372-1.6871.56239v8.99825l1.1247.5999v.4311h-6.2987v-.4499l1.1248-.6373zm16.3468-5.1552 3.5618-.225c0-3.05565-.5062-5.099-1.556-5.099-1.1248 0-2.0058 2.36204-2.0058 5.324zm.0749.5623c.1313 2.4746 1.2373 4.3867 3.8618 4.3867 1.256 0 2.1558-.5811 2.9994-1.0311v.4874c-1.1341 1.3854-2.8401 2.1784-4.6303 2.1559-4.068 0-6.1301-2.2496-6.1301-6.1863 0-3.82427 2.2496-6.18631 5.9426-6.18631 3.4493 0 5.249 1.70592 5.249 6.26131v.1124h-7.3111zm-51.721102 11.6228c0-6.505 4.311662-8.8108 9.110722-8.8108 1.70588-.045 3.40618.2081 5.02398.7499l.0938 4.5553h-.4499l-2.812-4.4054c-.5718-.2268-1.1866-.3224-1.79964-.2812-2.5495 0-3.843 2.9432-3.80551 7.7798.05624 5.7738 1.0498 8.3983 3.37434 8.3983.61863 0 1.08731-.0937 1.42471-.2249v-6.1863l-1.55593-.8999v-.5061h7.47983v.5624l-1.5185.8436v6.0738c-1.8109.6486-3.7193.9767-5.64265.9748-5.45518.0187-8.923252-2.512-8.923252-8.6233zm16.009402-3.0369v-.375l5.024-.881.5624.0375v9.898c0 1.1998.5624 1.556 1.5184 1.556.6299.0131 1.2298-.2644 1.631-.7499v-8.8857l-1.3685-.5999v-.375l5.0053-.8998.5061.0375v11.3603l1.3685.5624v.3749l-4.9678.5999-.5061-.0375v-1.4997h-.1313c-1.0029.9861-2.3433 1.5541-3.7492 1.5934-2.4371 0-3.5243-1.4247-3.5243-3.5805v-7.5173l-1.3685-.5999zm32.1125-1.2748.4124.0375v3.6555h.1124c.5437-2.6807 1.7247-3.6742 3.1682-3.6742.2249 0 .4686 0 .6186.0937v3.7493c-1.2672-.2362-2.5757-.0806-3.7493.4499v7.2361l1.1248.6373v.4687h-6.505v-.4687l1.1623-.6373v-9.8981l-1.3685-.4124v-.3375l5.0241-.9373z"/><path d="m61.3195 30.2753v-9.9355c-.3187-.1875-.5624-.4499-1.3872-.4124-1.3498.0375-2.1934 2.0808-2.1934 5.7363 0 3.2806.5999 5.1178 2.4183 5.0615.4274-.0093.8399-.1687 1.1623-.4499zm0-10.6291v-3.8618l-1.3685-.4874v-.2999l5.0615-.9373.4874.0749v16.5905l1.406.5062v.4312l-5.0053.6748-.3749-.0562v-1.3497h-.1312c-.7499.7498-1.7434 1.4059-3.3181 1.4059-2.737 0-4.7241-2.0808-4.7241-6.355 0-4.4991 2.3058-6.7112 5.8114-6.7112 1.0123 0 1.7809.1875 2.1558.3937m11.604-3.4493c0 1.2185-1.0311 2.1371-2.2121 2.1371-1.2373 0-2.2121-.9374-2.2121-2.1371 0-1.2185.9748-2.1558 2.2121-2.1558 1.181 0 2.2121.9373 2.2121 2.1558zm-.4499 3.1119.4311.0375v11.529l1.1436.6373v.4687h-6.505v-.4687l1.1622-.6373v-9.7106l-1.3872-.5624v-.375l5.1553-.9373zm16.1593 11.5665v-9.8044l-1.3872-.4874v-.4686l5.0052-.9373.5062.0562v1.4622h.1312c1.1904-1.0217 2.7051-1.5878 4.2742-1.5934 2.1746 0 3.1305 1.031 3.1305 3.3368v8.4171l1.181.6561v.4687h-6.5236v-.4687l1.181-.6373v-8.2109c0-1.256-.5623-1.7622-1.5934-1.7622-.6186-.0131-1.226.1781-1.7247.5437v9.4294l1.1623.6373v.4687h-6.5237v-.4687zm-7.2361-.6187v-4.9677l-.8248.0749c-1.3123.1125-1.7809.9374-1.7809 2.812 0 1.9871.6561 2.512 1.5747 2.512.5249 0 .8061-.1687 1.031-.4312zm0-5.5489v-1.6497c0-2.4745-.5436-3.2806-2.0621-3.2806l-.5249.0375-2.7182 3.6931h-.3749v-3.3931c1.1623-.375 2.6245-.7874 4.5553-.7874 3.3369 0 5.2678.9373 5.2678 3.7118v8.0234l1.1997.3187v.3187c-.7555.3806-1.5915.5736-2.437.5624-1.6684 0-2.437-.5624-2.812-1.4435h-.1124c-.6936.9373-1.6872 1.4997-3.2431 1.4997-1.9872 0-3.3369-1.256-3.3369-3.3931 0-2.0621 1.2935-3.1868 3.8992-3.693zm-43.529 5.5489v-4.9677l-.8248.0749c-1.3123.1125-1.7809.9374-1.7809 2.812 0 1.9871.6561 2.512 1.5747 2.512.5061 0 .8061-.1687 1.031-.4312zm0-5.5489v-1.6497c0-2.4745-.5436-3.2806-2.0621-3.2806l-.5249.0375-2.7182 3.6931h-.3749v-3.3931c1.1623-.375 2.6245-.7874 4.5553-.7874 3.3369 0 5.2678.9373 5.2678 3.7118v8.0234l1.1997.3187v.3187c-.7611.3843-1.6028.5774-2.4557.5624-1.6497 0-2.4371-.5624-2.812-1.4435h-.0937c-.6936.9373-1.6872 1.4997-3.2431 1.4997-1.9872 0-3.3369-1.256-3.3369-3.3931 0-2.0621 1.2935-3.1868 3.8992-3.693z"/></g></svg>