<svg width="31" height="31" viewBox="0 0 31 31" fill="none" xmlns="http://www.w3.org/2000/svg">
<path d="M26.6915 30.999H2.38968C1.07232 30.999 0 29.9267 0 28.6093V4.3075C0 2.99014 1.07232 1.91782 2.38968 1.91782H15.5532V2.64687H2.38968C1.47431 2.64687 0.729054 3.39213 0.729054 4.3075V28.6093C0.729054 29.5247 1.47431 30.2699 2.38968 30.2699H26.6915C27.6069 30.2699 28.3521 29.5257 28.3521 28.6093V15.4458H29.0822V28.6093C29.0812 29.9277 28.0099 30.999 26.6915 30.999ZM22.6412 17.8355H13.1635V8.3578H13.8925V16.591L30.4836 0L31 0.515401L14.4079 17.1064H22.6412V17.8355Z" fill="black"/>
</svg>
