<svg width="31" height="31" viewBox="0 0 31 31" fill="none" xmlns="http://www.w3.org/2000/svg">
<path d="M25.5903 30.9983C22.7306 30.9983 20.3814 28.7662 20.1937 25.9529H12.5732L7.61352 28.9276C7.50151 28.9952 7.36226 28.9962 7.24823 28.9327C7.13421 28.8681 7.06357 28.748 7.06357 28.6168V25.9529H5.91322C2.65288 25.9529 0 23.3 0 20.0396C0 16.7793 2.65187 14.1264 5.91322 14.1264H12.3713L17.33 11.1506C17.444 11.084 17.5812 11.083 17.6963 11.1456C17.8103 11.2102 17.8809 11.3313 17.8809 11.4624V14.1264H25.0858C27.9455 14.1264 30.2725 11.7995 30.2725 8.93973C30.2725 6.08 27.9455 3.75305 25.0858 3.75305H22.664L17.7053 6.72884C17.5913 6.79543 17.4531 6.79745 17.3391 6.73388C17.225 6.6693 17.1544 6.54821 17.1544 6.41703V3.75305H5.50959L0.549949 6.72884C0.437941 6.79644 0.298688 6.79644 0.184662 6.73287C0.0706358 6.6693 0 6.54821 0 6.41703V0.362539C0 0.231358 0.0706358 0.110268 0.184662 0.0466962C0.298688 -0.0158668 0.437941 -0.0158668 0.549949 0.0517416L5.50959 3.02651H17.1544V0.362539C17.1544 0.231358 17.225 0.110268 17.3391 0.0466962C17.4531 -0.0168759 17.5913 -0.0158668 17.7053 0.0517416L22.664 3.02651H25.0858C28.3461 3.02651 30.999 5.67838 30.999 8.93973C30.999 12.2011 28.3461 14.853 25.0858 14.853H17.8809V17.5169C17.8809 17.6481 17.8103 17.7682 17.6963 17.8328C17.5812 17.8974 17.444 17.8953 17.33 17.8277L12.3713 14.853H5.91322C3.05348 14.853 0.726539 17.1799 0.726539 20.0396C0.726539 22.8994 3.05348 25.2263 5.91322 25.2263H7.06357V22.5623C7.06357 22.4312 7.13421 22.3111 7.24823 22.2465C7.36226 22.1829 7.50151 22.1839 7.61352 22.2515L12.5732 25.2263H20.1948C20.3824 22.413 22.7316 20.1809 25.5913 20.1809C28.5732 20.1809 31 22.6077 31 25.5896C31 28.5714 28.5721 30.9983 25.5903 30.9983ZM25.5903 20.9074C23.0081 20.9074 20.9082 23.0073 20.9082 25.5896C20.9082 28.1718 23.0081 30.2717 25.5903 30.2717C28.1726 30.2717 30.2725 28.1718 30.2725 25.5896C30.2725 23.0073 28.1726 20.9074 25.5903 20.9074ZM7.79011 25.5896V27.9751L11.7659 25.5896L7.79011 23.2041V25.5896ZM13.1786 14.4897L17.1544 16.8752V12.1032L13.1786 14.4897ZM17.8809 3.38978V5.77525L21.8567 3.38978L17.8809 1.00431V3.38978ZM0.726539 1.00431V5.77626L4.70232 3.38978L0.726539 1.00431ZM24.329 27.971C24.2664 27.971 24.2028 27.9539 24.1463 27.9216C24.0343 27.857 23.9647 27.7359 23.9647 27.6067V23.5704C23.9647 23.4412 24.0333 23.3212 24.1463 23.2556C24.2573 23.192 24.3956 23.191 24.5086 23.2546L28.0404 25.2727C28.1534 25.3373 28.224 25.4584 28.224 25.5876C28.224 25.7167 28.1544 25.8378 28.0404 25.9024L24.5086 27.9206C24.4531 27.9549 24.3915 27.971 24.329 27.971ZM24.6922 24.197V26.9821L27.1282 25.5896L24.6922 24.197Z" fill="black"/>
</svg>
