<svg width="31" height="31" viewBox="0 0 31 31" fill="none" xmlns="http://www.w3.org/2000/svg">
<path d="M15.4995 30.999C10.9284 30.999 6.70333 29.0484 3.75378 25.6125V30.6357H3.02725V24.218H9.445V24.9455H4.14026C6.95762 28.3401 11.0575 30.2725 15.4995 30.2725C23.6448 30.2725 30.2725 23.6458 30.2725 15.4995H31C30.999 24.0464 24.0464 30.999 15.4995 30.999ZM0.726539 15.4995H0C0 6.95257 6.95257 0 15.4995 0C20.0706 0 24.2957 1.94955 27.2452 5.38547V0.363269H27.9728V6.78103H21.554V6.05449H26.8587C24.0414 2.65893 19.9415 0.726539 15.4995 0.726539C7.35318 0.726539 0.726539 7.35318 0.726539 15.4995Z" fill="black"/>
</svg>
