<svg width="28" height="31" viewBox="0 0 28 31" fill="none" xmlns="http://www.w3.org/2000/svg">
<path d="M24 30.72H4C3.801 30.72 3.64 30.559 3.64 30.36V4.72H0V4H8.64V0.36C8.64 0.161 8.801 0 9 0H19C19.199 0 19.36 0.161 19.36 0.36V4H28V4.72H24.36V30.36C24.36 30.559 24.199 30.72 24 30.72ZM4.36 30H23.64V4.72H4.36V30ZM9.36 4H18.64V0.72H9.36V4Z" fill="black"/>
<path d="M19 26.72C18.801 26.72 18.64 26.559 18.64 26.36V8.36C18.64 8.161 18.801 8 19 8C19.199 8 19.36 8.161 19.36 8.36V26.36C19.36 26.559 19.199 26.72 19 26.72ZM14 26.72C13.801 26.72 13.64 26.559 13.64 26.36V8.36C13.64 8.161 13.801 8 14 8C14.199 8 14.36 8.161 14.36 8.36V26.36C14.36 26.559 14.199 26.72 14 26.72ZM9 26.72C8.801 26.72 8.64 26.559 8.64 26.36V8.36C8.64 8.161 8.801 8 9 8C9.199 8 9.36 8.161 9.36 8.36V26.36C9.36 26.559 9.199 26.72 9 26.72Z" fill="black"/>
</svg>
