<svg width="31" height="27" viewBox="0 0 31 27" fill="none" xmlns="http://www.w3.org/2000/svg">
<path d="M24.7627 18.8997C27.8021 18.8997 30.2744 16.4304 30.2744 13.393C30.2744 10.5039 28.0211 8.08603 25.1441 7.88926C24.9604 7.87614 24.8161 7.72881 24.8061 7.54515C24.6073 3.7206 21.4538 0.725553 17.6282 0.725553C14.8511 0.725553 12.294 2.35628 11.1124 4.88008C11.0296 5.05667 10.8217 5.13639 10.6451 5.06273C9.77327 4.70449 8.85397 4.52285 7.91348 4.52285C3.95068 4.52285 0.726562 7.75202 0.726562 11.7209C0.726562 15.3295 3.39466 18.4133 6.93161 18.8957C7.1304 18.9219 7.26966 19.1056 7.24242 19.3044C7.21517 19.5032 7.03555 19.6515 6.83271 19.6152C2.93753 19.0854 0 15.6907 0 11.7209C0 7.3514 3.55006 3.79629 7.91247 3.79629C8.8348 3.79629 9.73796 3.95472 10.6038 4.26855C11.962 1.66403 14.6826 0 17.6262 0C21.7333 0 25.136 3.13532 25.5074 7.19499C28.6124 7.56634 31 10.2304 31 13.394C31.001 16.83 28.2027 19.6273 24.7627 19.6273C24.7536 19.6273 24.6739 19.6232 24.6648 19.6222C24.468 19.6071 24.2894 19.4376 24.2995 19.2408C24.3086 19.047 24.4408 18.8926 24.6325 18.8926C24.6355 18.8926 24.6385 18.8926 24.6406 18.8926L24.7627 18.8997Z" fill="black"/>
<path d="M15.8643 26.6003H15.1377V10.3222L9.70263 15.7573L9.19 15.2427L15.501 8.93167L21.813 15.2427L21.2984 15.7573L15.8643 10.3222V26.6003Z" fill="black"/>
</svg>
