<svg width="31" height="29" viewBox="0 0 31 29" fill="none" xmlns="http://www.w3.org/2000/svg">
<path d="M24.6595 18.8143C27.6791 18.8143 30.1341 16.3553 30.1341 13.3328C30.1341 10.4559 27.8961 8.05009 25.0392 7.85421C24.8564 7.84115 24.7128 7.69449 24.7027 7.51167C24.5049 3.70461 21.3658 0.723242 17.5567 0.723242C14.7933 0.723242 12.2469 2.34652 11.0716 4.85878C10.9903 5.03356 10.7833 5.11292 10.6065 5.03959C9.73866 4.68299 8.82456 4.50218 7.88836 4.50218C3.93765 4.50218 0.723242 7.71659 0.723242 11.6673C0.723242 15.2574 3.38317 18.3282 6.91098 18.8083C7.10887 18.8344 7.24749 19.0173 7.22037 19.2151C7.19325 19.412 7.00942 19.5597 6.81254 19.5245C2.92813 18.9962 0 15.617 0 11.6673C0 7.31781 3.53886 3.77894 7.88836 3.77894C8.80648 3.77894 9.70551 3.93665 10.5664 4.24905C11.9184 1.65643 14.6266 0 17.5567 0C21.645 0 25.0332 3.12099 25.4029 7.16211C28.4867 7.53176 30.8593 10.1826 30.8593 13.3328C30.8583 16.7541 28.0779 19.5386 24.6595 19.5386C24.6505 19.5386 24.5701 19.5346 24.5611 19.5336C24.3662 19.5185 24.1874 19.3497 24.1975 19.1539C24.2075 18.958 24.323 18.7882 24.537 18.8073L24.6595 18.8143Z" fill="black"/>
<path d="M15.4292 29L9.14701 22.7178L9.6573 22.2055L15.0675 27.6158V11.4122H15.7908V27.6158L21.2 22.2055L21.7123 22.7178L15.4292 29Z" fill="black"/>
</svg>
