<svg width="31" height="31" viewBox="0 0 31 31" fill="none" xmlns="http://www.w3.org/2000/svg">
<path d="M4.50425 31C3.34892 31 2.19461 30.5601 1.31576 29.6812C0.467174 28.8316 0 27.6995 0 26.4917C0 25.2839 0.467174 24.1518 1.31576 23.3032L9.1215 15.4985L1.31576 7.69274C0.467174 6.84415 0 5.71204 0 4.50425C0 3.29645 0.467174 2.16434 1.31576 1.31576C2.16333 0.467174 3.29645 0 4.50425 0C5.71204 0 6.84415 0.467174 7.69274 1.31576L15.4985 9.1215L23.3032 1.31677C24.1518 0.468183 25.2839 0.001009 26.4917 0.001009C27.6995 0.001009 28.8316 0.468183 29.6812 1.31677C31.4389 3.07447 31.4389 5.93503 29.6812 7.69375L21.8755 15.4985L29.6812 23.3032C31.4389 25.0609 31.4389 27.9225 29.6812 29.6812C27.9215 31.4389 25.0609 31.4389 23.3032 29.6812L15.4985 21.8755L7.69274 29.6812C6.81388 30.5611 5.65957 31 4.50425 31ZM4.50425 0.726491C3.49119 0.726491 2.5407 1.11799 1.82935 1.82935C1.119 2.5407 0.726491 3.49119 0.726491 4.50425C0.726491 5.51831 1.11799 6.46779 1.82935 7.17915L9.88634 15.2361C10.0286 15.3784 10.0337 15.6135 9.89138 15.7548L1.82935 23.8178C1.11799 24.5282 0.726491 25.4787 0.726491 26.4917C0.726491 27.5048 1.11799 28.4553 1.82935 29.1666C3.30453 30.6438 5.70397 30.6418 7.17915 29.1666L15.2412 21.1046C15.3835 20.9623 15.6125 20.9623 15.7548 21.1046L23.8178 29.1666C25.292 30.6408 27.6934 30.6428 29.1676 29.1666C30.6428 27.6914 30.6428 25.291 29.1676 23.8168L21.1056 15.7538C20.9633 15.6115 20.9633 15.3824 21.1056 15.2402L29.1676 7.17814C30.6428 5.70296 30.6428 3.30352 29.1676 1.82834C28.4563 1.119 27.5058 0.726491 26.4927 0.726491C25.4797 0.726491 24.5292 1.11799 23.8188 1.82935L15.7558 9.89138C15.6135 10.0337 15.3845 10.0337 15.2422 9.89138L7.18016 1.82935C6.46779 1.119 5.51831 0.726491 4.50425 0.726491Z" fill="black"/>
</svg>
