<svg width="31" height="31" viewBox="0 0 31 31" fill="none" xmlns="http://www.w3.org/2000/svg">
<path d="M15.5 31C6.9528 31 0 24.0462 0 15.5C0 6.95381 6.95381 0 15.5 0C24.0462 0 31 6.9528 31 15.5C31 24.0472 24.0472 31 15.5 31ZM15.5 0.726563C7.35443 0.726563 0.726563 7.35342 0.726563 15.5C0.726563 23.6456 7.35342 30.2734 15.5 30.2734C23.6456 30.2734 30.2724 23.6466 30.2724 15.5C30.2734 7.35342 23.6456 0.726563 15.5 0.726563ZM20.5325 22.9271C19.8907 22.9271 19.2892 22.6788 18.8371 22.2278L15.5 18.8886L12.1618 22.2278C11.2597 23.1319 9.67438 23.1299 8.77223 22.2278C8.32116 21.7767 8.07292 21.1743 8.07292 20.5325C8.07292 19.8907 8.32116 19.2892 8.77223 18.8371L12.1104 15.5L8.77223 12.1618C7.83779 11.2274 7.83779 9.70667 8.77223 8.77324C9.70667 7.83981 11.2284 7.83779 12.1618 8.77324L15.5 12.1104L18.8371 8.77324C19.7413 7.87008 21.3256 7.87109 22.2268 8.77324C22.6778 9.22431 22.9261 9.82575 22.9261 10.4675C22.9261 11.1093 22.6778 11.7108 22.2268 12.1629L18.8896 15.5L22.2278 18.8382C22.6788 19.2892 22.9271 19.8907 22.9271 20.5335C22.9271 21.1763 22.6788 21.7767 22.2278 22.2288C21.7767 22.6809 21.1753 22.9271 20.5325 22.9271ZM15.5 18.0117C15.5969 18.0117 15.6887 18.05 15.7563 18.1176L19.3508 21.7121C19.9785 22.3418 21.0875 22.3408 21.7121 21.7121C22.027 21.3983 22.1995 20.9785 22.1995 20.5314C22.1995 20.0844 22.0259 19.6646 21.7121 19.3508L18.1176 15.7553C17.9754 15.613 17.9754 15.384 18.1176 15.2417L21.7121 11.6472C22.027 11.3334 22.1995 10.9136 22.1995 10.4665C22.1995 10.0195 22.0259 9.59971 21.7121 9.28587C21.0875 8.65921 19.9785 8.65618 19.3508 9.28587L15.7563 12.8803C15.614 13.0226 15.385 13.0226 15.2427 12.8803L11.6482 9.28587C11.0195 8.65719 9.91253 8.6582 9.28587 9.28587C8.63499 9.93776 8.63499 10.9963 9.28587 11.6482L12.8803 15.2427C13.0226 15.385 13.0226 15.614 12.8803 15.7563L9.28587 19.3518C8.97204 19.6656 8.79948 20.0854 8.79948 20.5325C8.79948 20.9795 8.97204 21.3993 9.28587 21.7131C9.91253 22.3408 11.0195 22.3418 11.6482 21.7131L15.2427 18.1187C15.3113 18.05 15.4041 18.0117 15.5 18.0117Z" fill="black"/>
</svg>
