<svg width="31" height="31" viewBox="0 0 31 31" fill="none" xmlns="http://www.w3.org/2000/svg">
<path d="M15.5 31C6.9528 31 0 24.0472 0 15.5C0 6.9528 6.9528 0 15.5 0C24.0472 0 31 6.9528 31 15.5C31 24.0472 24.0472 31 15.5 31ZM4.80439 5.31904C2.27858 7.971 0.726563 11.5574 0.726563 15.5C0.726563 23.6456 7.35342 30.2734 15.5 30.2734C19.4426 30.2734 23.03 28.7214 25.682 26.1956L4.80439 5.31904ZM5.31904 4.80439L26.1956 25.682C28.7214 23.03 30.2734 19.4426 30.2734 15.5C30.2734 7.35342 23.6466 0.726563 15.5 0.726563C11.5574 0.726563 7.971 2.27858 5.31904 4.80439Z" fill="black"/>
</svg>
