<svg width="31" height="31" viewBox="0 0 31 31" fill="none" xmlns="http://www.w3.org/2000/svg">
<path d="M26.6003 31H2.38151C1.06865 31 0 29.9313 0 28.6185V4.39974C0 3.08688 1.06865 2.01823 2.38151 2.01823H15.5V2.74479H2.38151C1.46927 2.74479 0.726563 3.4875 0.726563 4.39974V28.6185C0.726563 29.5307 1.46927 30.2734 2.38151 30.2734H26.6003C27.5125 30.2734 28.2552 29.5317 28.2552 28.6185V15.5H28.9828V28.6185C28.9818 29.9324 27.9141 31 26.6003 31ZM13.7381 17.7756L13.2244 17.2609L29.7598 0.726563H21.5547V0H31V9.44531H30.2734V1.2402L13.7381 17.7756Z" fill="black"/>
</svg>
