<svg width="31" height="27" viewBox="0 0 31 27" fill="none" xmlns="http://www.w3.org/2000/svg">
<path d="M15.4995 26.7339C15.4067 26.7339 15.3128 26.6986 15.2422 26.6279L2.35807 13.7438C0.837483 12.2232 0 10.2062 0 8.06405C0 5.90577 0.837483 3.87967 2.35807 2.35807C3.87765 0.838492 5.8977 0.00201803 8.04791 0C8.04791 0 8.04892 0 8.04993 0C10.2012 0 12.2232 0.837483 13.7438 2.35807L15.4995 4.11376L17.2552 2.35807C18.7758 0.837483 20.7978 0 22.948 0C22.9511 0 22.9531 0 22.9561 0C25.1033 0.00201803 27.1223 0.839501 28.6419 2.35807C30.1625 3.87967 31 5.90072 31 8.05094C31 10.2012 30.1625 12.2222 28.6419 13.7438L15.7568 26.6279C15.6852 26.6986 15.5923 26.7339 15.4995 26.7339ZM8.04993 0.7275C8.04993 0.7275 8.04892 0.7275 8.04791 0.7275C6.09244 0.728509 4.25502 1.49032 2.87267 2.87267C1.48931 4.25603 0.7275 6.0995 0.7275 8.06405C0.7275 10.0125 1.48931 11.8469 2.87267 13.2292L15.4995 25.856L28.1263 13.2292C29.5097 11.8458 30.2715 10.0074 30.2715 8.05094C30.2715 6.09446 29.5097 4.25603 28.1263 2.87267C26.744 1.49133 24.9076 0.729518 22.9551 0.7275C22.9521 0.7275 22.9491 0.7275 22.947 0.7275C20.9916 0.7275 19.1521 1.4883 17.7688 2.87267L15.7558 4.88565C15.6135 5.02793 15.3835 5.02793 15.2412 4.88565L13.2282 2.87267C11.8469 1.48931 10.0064 0.7275 8.04993 0.7275Z" fill="black"/>
</svg>
