<svg width="31" height="21" viewBox="0 0 31 21" fill="none" xmlns="http://www.w3.org/2000/svg">
<path d="M4.19821 20.458C4.17903 20.458 4.16087 20.458 4.1427 20.458C2.67039 20.4368 1.29898 19.6326 0.563331 18.358C0.203073 17.7334 0.00831134 17.024 0.000238326 16.3065C-0.0159077 14.7918 0.789376 13.381 2.10023 12.6242L22.6743 0.744722C23.5694 0.228049 24.5856 -0.0312965 25.6099 0.00301386C27.5494 0.0605341 29.2871 1.09691 30.2559 2.77609C30.7716 3.66816 31.0279 4.68234 30.9976 5.70862C30.9401 7.65018 29.9037 9.3879 28.2235 10.3577L11.4256 20.0564L11.0623 19.4277L27.8612 9.72898C29.3204 8.88636 30.2226 7.37469 30.273 5.68743C30.2973 4.79637 30.0753 3.9154 29.6272 3.14039C28.7846 1.68119 27.2749 0.780042 25.5887 0.729585C24.6754 0.698302 23.8146 0.925356 23.0376 1.37442L2.46352 13.2518C1.37871 13.8775 0.713691 15.0451 0.72681 16.2984C0.732865 16.8908 0.894325 17.4781 1.19303 17.9957C1.80153 19.0493 2.93579 19.7143 4.15381 19.7314C4.77846 19.7849 5.39402 19.5801 5.93592 19.2662L21.755 10.1326C22.4039 9.75824 22.8095 9.05993 22.8146 8.31015C22.8186 7.93475 22.7197 7.5644 22.531 7.23745C22.1576 6.5906 21.4896 6.19502 20.7428 6.17786C20.3473 6.16676 19.9739 6.26566 19.6358 6.46143L7.5919 13.4133L7.22862 12.7846L19.2725 5.83072C19.7246 5.56936 20.2413 5.43918 20.759 5.45028C21.7611 5.47349 22.6592 6.0053 23.1597 6.87315C23.414 7.31212 23.5462 7.81063 23.5422 8.31519C23.5351 9.32129 22.9892 10.2578 22.1183 10.7603L6.2982 19.8939C5.65942 20.2633 4.93487 20.458 4.19821 20.458Z" fill="black"/>
</svg>
