<svg width="32" height="31" viewBox="0 0 32 31" fill="none" xmlns="http://www.w3.org/2000/svg">
<path d="M4.32333 31L0 26.6767L4.32333 22.3533L4.84051 22.8715L1.40013 26.3109H28.9669C29.8854 26.3109 30.6332 25.5641 30.6332 24.6445V15.5H31.3658V24.6445C31.3658 25.9674 30.2898 27.0424 28.9679 27.0424H1.40013L4.83949 30.4818L4.32333 31ZM0.882956 15.5H0.151393V6.35546C0.151393 5.03356 1.2274 3.95755 2.54929 3.95755H30.116L26.6756 0.517174L27.1938 0L31.5162 4.32334L27.1938 8.64565L26.6756 8.12848L30.116 4.6881H2.54929C1.63078 4.68912 0.882956 5.43694 0.882956 6.35546V15.5Z" fill="black"/>
</svg>
