<svg xmlns="http://www.w3.org/2000/svg" viewBox="0 0 16 16"><path d="M3 27H29V29H3z" transform="rotate(180 16 28)"/><path d="M27 23H29V25H27z" transform="rotate(180 28 24)"/><path d="M27 19H29V21H27z" transform="rotate(180 28 20)"/><path d="M27 15H29V17H27z" transform="rotate(180 28 16)"/><path d="M27 11H29V13H27z" transform="rotate(180 28 12)"/><path d="M27 7H29V9H27z" transform="rotate(180 28 8)"/><path d="M27 3H29V5H27z" transform="rotate(180 28 4)"/><path d="M23 3H25V5H23z" transform="rotate(180 24 4)"/><path d="M19 3H21V5H19z" transform="rotate(180 20 4)"/><path d="M15 3H17V5H15z" transform="rotate(180 16 4)"/><path d="M7 3H9V5H7z" transform="rotate(180 8 4)"/><path d="M11 3H13V5H11z" transform="rotate(180 12 4)"/><path d="M3 23H5V25H3z" transform="rotate(180 4 24)"/><path d="M3 19H5V21H3z" transform="rotate(180 4 20)"/><path d="M3 15H5V17H3z" transform="rotate(180 4 16)"/><path d="M3 11H5V13H3z" transform="rotate(180 4 12)"/><path d="M3 7H5V9H3z" transform="rotate(180 4 8)"/><path d="M3 3H5V5H3z" transform="rotate(180 4 4)"/><path d="M8 10H18V12H8zM8 15H14V17H8z"/></svg>