<svg xmlns="http://www.w3.org/2000/svg" viewBox="0 0 16 16"><path d="M29.4819,8.624l-10-5.5a1,1,0,0,0-.9638,0l-10,5.5a1,1,0,0,0,0,1.752L18,15.5913V26.3086l-3.0362-1.6693L14,26.3912l4.5181,2.4848a.9984.9984,0,0,0,.9638,0l10-5.5A1,1,0,0,0,30,22.5V9.5A1,1,0,0,0,29.4819,8.624ZM19,5.1416,26.9248,9.5,19,13.8584,11.0752,9.5Zm9,16.7671-8,4.4V15.5913l8-4.4Z"/><path d="M2 14H10V16H2z" transform="rotate(-180 6 15)"/><path d="M4 22H12V24H4z" transform="rotate(-180 8 23)"/><path d="M6 18H14V20H6z" transform="rotate(-180 10 19)"/></svg>