<svg xmlns="http://www.w3.org/2000/svg" viewBox="0 0 16 16"><circle cx="22" cy="23.887" r="2"/><path d="M29.7769 23.4785A8.64 8.64 0 0022 18a8.64 8.64 0 00-7.7769 5.4785L14 24l.2231.5215A8.64 8.64 0 0022 30a8.64 8.64 0 007.7769-5.4785L30 24zM22 28a4 4 0 114-4A4.0045 4.0045 0 0122 28zM25 10H4A2.0021 2.0021 0 012 8V4A2.0021 2.0021 0 014 2H25a2.0021 2.0021 0 012 2V8A2.0021 2.0021 0 0125 10zM4 4V8H25V4zM12 28H4V24h8V22H4a2.0023 2.0023 0 00-2 2v4a2.0023 2.0023 0 002 2h8z"/><path d="M28,12H7a2.0023,2.0023,0,0,0-2,2v4a2.0023,2.0023,0,0,0,2,2h5V18H7V14H28l.0007,2H30V14A2.0023,2.0023,0,0,0,28,12Z"/></svg>