<svg xmlns="http://www.w3.org/2000/svg" viewBox="0 0 16 16"><path fill="none" d="M16 7L17.912 10.667 22 11.173 19 13.926 19.6 18 16 15.708 12.4 18 13 13.926 10 11.173 14.2 10.667 16 7z"/><path d="M16,2A11.0134,11.0134,0,0,0,5,13a10.8885,10.8885,0,0,0,2.2163,6.6s.3.3945.3482.4517L16,30l8.439-9.9526c.0444-.0533.3447-.4478.3447-.4478l.0015-.0024A10.8846,10.8846,0,0,0,27,13,11.0134,11.0134,0,0,0,16,2Zm3.6,16L16,15.7085,12.4,18l.6-4.0742-3-2.7529,4.2-.5064L16,7l1.9116,3.6665L22,11.1729l-3,2.7529Z"/></svg>