<svg fill="none" height="100" viewBox="0 0 100 100" width="100" xmlns="http://www.w3.org/2000/svg" xmlns:xlink="http://www.w3.org/1999/xlink"><clipPath id="a"><path d="m0 0h100v100h-100z"/></clipPath><g clip-path="url(#a)"><path d="m2.25 2.25h95.5v95.5h-95.5z" stroke="#314fdc" stroke-width="4.5"/><g fill="#314fdc"><path d="m52.5361 62.456c-.1733-.936-.468-1.8893-.884-2.86-.3814-.9706-.9533-1.872-1.716-2.704-.7627-.8666-1.7507-1.56-2.964-2.08s-2.7214-.78-4.524-.78c-2.0454 0-3.796.3987-5.252 1.196-1.4214.7974-2.5827 1.872-3.484 3.224-.9014 1.352-1.56 2.8947-1.976 4.628-.416 1.6987-.624 3.4667-.624 5.304 0 1.8374.208 3.6227.624 5.356.416 1.7334 1.0746 3.276 1.976 4.628.9013 1.352 2.0626 2.4267 3.484 3.224 1.456.7974 3.2066 1.196 5.252 1.196 2.392 0 4.2986-.4506 5.72-1.352 1.456-.936 2.5133-2.1146 3.172-3.536.6933-1.4213 1.092-2.8946 1.196-4.42h5.98c-.2774 2.7387-1.092 5.2-2.444 7.384-1.3173 2.1494-3.12 3.8307-5.408 5.044-2.288 1.2134-5.0093 1.82-8.164 1.82-3.5013 0-6.552-.832-9.152-2.496s-4.6107-3.952-6.032-6.864c-1.4214-2.912-2.132-6.2226-2.132-9.932 0-2.8426.3986-5.4253 1.196-7.748.832-2.3573 2.0106-4.4026 3.536-6.136 1.5253-1.7333 3.3453-3.068 5.46-4.004 2.1493-.9706 4.5413-1.456 7.176-1.456 3.1546 0 5.8586.5894 8.112 1.768 2.2533 1.1787 4.056 2.7907 5.408 4.836 1.352 2.0107 2.1666 4.264 2.444 6.76z"/><path d="m75.2459 87.78c-2.7734 0-5.148-.5893-7.124-1.768-1.976-1.2133-3.5014-2.8773-4.576-4.992-1.04-2.1146-1.56-4.5413-1.56-7.28 0-2.08.2946-3.9693.884-5.668.5893-1.7333 1.456-3.224 2.6-4.472 1.1786-1.2826 2.5826-2.2533 4.212-2.912 1.664-.6933 3.5186-1.04 5.564-1.04 2.7733 0 5.1306.6067 7.072 1.82 1.976 1.1787 3.5013 2.8254 4.576 4.94 1.0746 2.08 1.612 4.5067 1.612 7.28 0 2.1147-.312 4.0387-.936 5.772-.5894 1.6987-1.4734 3.172-2.652 4.42-1.144 1.248-2.5307 2.2187-4.16 2.912-1.6294.6587-3.4667.988-5.512.988zm0-4.212c1.3866 0 2.5653-.2426 3.536-.728 1.0053-.4853 1.82-1.1786 2.444-2.08.6586-.936 1.144-1.9933 1.456-3.172.3466-1.1786.52-2.4613.52-3.848 0-1.872-.2947-3.536-.884-4.992-.5547-1.4906-1.4214-2.6693-2.6-3.536-1.1787-.8666-2.6694-1.3-4.472-1.3-1.352 0-2.5307.2427-3.536.728-1.0054.4854-1.8374 1.1787-2.496 2.08-.6587.9014-1.144 1.9587-1.456 3.172-.312 1.1787-.468 2.4614-.468 3.848 0 1.8374.2773 3.5014.832 4.992.5546 1.4907 1.4213 2.6694 2.6 3.536 1.2133.8667 2.7213 1.3 4.524 1.3z"/></g></g></svg>