<svg width="100" height="100" viewBox="0 0 100 100" fill="none" xmlns="http://www.w3.org/2000/svg">
<rect width="100" height="100" fill="#314FDC"/>
<path d="M53.7863 63.5498C53.6388 62.7535 53.4029 61.9573 53.0785 61.161C52.7541 60.3353 52.2823 59.5833 51.663 58.905C51.0437 58.1972 50.2474 57.6369 49.2742 57.224C48.301 56.8112 47.0919 56.6047 45.6469 56.6047C43.9659 56.6047 42.5504 56.9291 41.4002 57.5779C40.2501 58.2267 39.3064 59.0967 38.5691 60.1878C37.8613 61.279 37.3453 62.5323 37.0209 63.9479C36.6965 65.3634 36.5343 66.8527 36.5343 68.4157C36.5343 69.9787 36.6965 71.468 37.0209 72.8836C37.3453 74.2991 37.8613 75.5672 38.5691 76.6878C39.3064 77.779 40.2501 78.649 41.4002 79.2978C42.5504 79.9466 43.9659 80.271 45.6469 80.271C47.5638 80.271 49.0973 79.9023 50.2474 79.1651C51.3975 78.4278 52.238 77.4841 52.7689 76.334C53.3292 75.1543 53.6683 73.9305 53.7863 72.6624H59.4485C59.2126 75.0216 58.5195 77.1302 57.3694 78.9881C56.2487 80.8165 54.7005 82.2616 52.7246 83.3232C50.7782 84.3849 48.4485 84.9157 45.7353 84.9157C42.6683 84.9157 40.0142 84.2079 37.7729 82.7924C35.5611 81.3474 33.8506 79.3862 32.6415 76.909C31.4619 74.4318 30.8721 71.6155 30.8721 68.46C30.8721 66.0712 31.2112 63.8742 31.8895 61.8688C32.5973 59.8634 33.6 58.1235 34.8975 56.649C36.1951 55.1449 37.7581 53.9948 39.5865 53.1986C41.4445 52.3728 43.5088 51.96 45.7796 51.96C48.4927 51.96 50.8225 52.476 52.7689 53.5082C54.7152 54.5404 56.2487 55.9412 57.3694 57.7106C58.5195 59.4506 59.2126 61.397 59.4485 63.5498H53.7863Z" fill="white"/>
<path d="M73.6793 84.96C71.3201 84.96 69.2852 84.4586 67.5748 83.4559C65.8643 82.4238 64.552 81.0082 63.6378 79.2093C62.7235 77.4104 62.2664 75.3313 62.2664 72.972C62.2664 71.2026 62.5319 69.5806 63.0627 68.1061C63.5935 66.6315 64.3455 65.3634 65.3187 64.3018C66.3214 63.2401 67.5305 62.4291 68.9461 61.8688C70.3616 61.279 71.9689 60.9841 73.7678 60.9841C76.127 60.9841 78.1471 61.4854 79.8281 62.4881C81.5386 63.4908 82.8509 64.8916 83.7651 66.6905C84.6793 68.4894 85.1364 70.5685 85.1364 72.9278C85.1364 74.6972 84.871 76.3192 84.3402 77.7937C83.8388 79.2683 83.0868 80.5364 82.0841 81.598C81.1109 82.6597 79.9166 83.4854 78.501 84.0752C77.0855 84.6651 75.4782 84.96 73.6793 84.96ZM73.7235 81.023C74.8147 81.023 75.7584 80.8313 76.5546 80.4479C77.3509 80.035 78.0144 79.4747 78.5453 78.7669C79.0761 78.0297 79.4742 77.1744 79.7396 76.2012C80.005 75.1986 80.1378 74.1222 80.1378 72.972C80.1378 71.3795 79.9018 69.9935 79.43 68.8138C78.9581 67.6047 78.2504 66.6463 77.3067 65.9385C76.363 65.2307 75.1686 64.8768 73.7235 64.8768C72.6324 64.8768 71.6739 65.0833 70.8482 65.4962C70.052 65.8795 69.3884 66.4399 68.8576 67.1771C68.3563 67.9144 67.9581 68.7696 67.6632 69.7428C67.3978 70.716 67.2651 71.7924 67.2651 72.972C67.2651 74.5055 67.501 75.8916 67.9729 77.1302C68.4447 78.3393 69.1525 79.2978 70.0962 80.0055C71.0694 80.6838 72.2785 81.023 73.7235 81.023Z" fill="white"/>
</svg>
