<svg enable-background="new 0 0 448 233" viewBox="0 0 448 233" xmlns="http://www.w3.org/2000/svg" xmlns:xlink="http://www.w3.org/1999/xlink"><clipPath id="snyk-light-a"><path d="m1 3.7h146v225.6h-146z"/></clipPath><g fill="#fff"><path d="m402.7 124.8h-1.7v29.9h-21.5v-74.4l21.5-33.6v69.5c4.3-5.2 18.7-25.1 18.7-25.1h26.5l-25.2 26.5 26 37.1h-27.1zm-59.9-4.9 8.8-28.7h21.3l-24.9 63.3c-7.4 19-18.1 31.9-33.9 31.9-6.1 0-11.2-1.6-13.9-3.1l8.5-13.2c1.3.2 2.6.2 3.9.2 7.3 0 12.8-7.1 16.4-15.6l-26.2-63.5h24.1l9.4 28.3c1.8 5.4 3.2 15.7 3.2 15.7s1.6-9.9 3.3-15.3zm-64.8-1.4c0-8.3-3.7-12.2-10.6-12.2-3.4 0-7 1-9.4 2.4v46h-21.5v-62.8l21-1.7-.5 10.3h.7c4.5-6.1 12.2-10.7 21.4-10.7 11 0 20.5 6.8 20.5 22.9v42.1h-21.6zm-103 33 1.9-14.6c6.7 3.3 14.3 4.9 20.7 4.9 4.6 0 7.7-1.6 7.7-4.4 0-8-28.9-6.1-28.9-27.1 0-13.4 12.3-20.5 27.7-20.5 7.7 0 15.6 2.1 20.8 3.9l-2.1 14.4c-5.4-2.1-12.7-4-18.8-4-3.8 0-6.8 1.3-6.8 3.8 0 7.9 29.6 6.4 29.6 26.9 0 13.6-12.1 21.5-28.7 21.5-9.3-.2-16.7-1.8-23.1-4.8z"/><g clip-path="url(#snyk-light-a)"><path d="m130 53.6c1.3 3.7 2.1 7.5 2.3 11.3v1.2l-8.5 22.6c2 17.9 3.8 39.9 1.8 45.2-1 2.6-4.1 7.3-9.1 14l5.4 50.1 21.4-15.4c1.1-.8 2-1.8 2.6-3s.9-2.5.9-3.9v-111.3c0-1.8-.6-3.6-1.7-5.1s-2.7-2.5-4.4-3c-2.6-.8-6.2-1.7-10.7-2.7z"/><path d="m58.5 65c10.1-3.4 21-3.4 31 0l2.6-4.3 1.7-12.1s-12.1-.6-19.7-.6c-7.1 0-13.8.3-19.9.7l1.7 12.1z"/><path d="m22.3 134c-2.1-5.3-.2-27.4 1.8-45.2l-8.4-22.6v-1.2c.2-3.9 1-7.7 2.3-11.3-4.5 1-8.1 1.9-10.9 2.7-1.8.5-3.3 1.6-4.4 3-1.1 1.4-1.7 3.2-1.7 5v111.4c0 1.3.3 2.7.9 3.9s1.5 2.2 2.6 3l21.5 15.5 5.4-50c-5-6.8-8.1-11.6-9.1-14.2z"/><path d="m104.3 8.5c.1 0 .2 0 .3.1s.2.1.2.2l2.9 5.3c7.6 14.2 20.5 40.8 20.5 50.8v.5l-8.5 22.8v.4c2.6 24 3.4 40.4 2.1 43.9-1.2 3.1-5.9 9.7-10 14.9l5.9 47.8-3.5 2.5-35.3 25.3c-1.4 1-3.2 1.6-4.9 1.6-1.8 0-3.5-.6-4.9-1.6l-28.5-20.5-4.3-3.1-5.8-4.1 5.8-47.7c-4-5.3-8.8-12-10.1-15.1-1.4-3.5-.6-19.9 2.1-43.9v-.4l-8.5-22.8v-.5c0-10 12.9-36.6 20.5-50.8l2.9-5.3c0-.1.1-.2.2-.2.1-.1.2-.1.3-.1s.3 0 .4.1.2.2.2.4l7.6 53.2 4.7 7.8 1.2-.4c5.2-1.8 10.6-2.8 16.1-2.9 5.5.2 11 1.2 16.2 3l1.2.4 4.7-7.7 7.6-53.2c0-.1.1-.3.2-.4.2-.2.4-.3.5-.3zm0-4.8c-1.3 0-2.6.5-3.6 1.3-1 .9-1.6 2-1.8 3.3l-7.5 52.2-2.2 3.6c-4.9-1.5-10.1-2.3-15.2-2.4-5.1.1-10.3.9-15.2 2.4l-2.2-3.6-7.5-52.1c-.2-1.3-.8-2.5-1.8-3.4s-2.3-1.3-3.6-1.3c-1 0-2 .3-2.8.8-.9.5-1.5 1.2-2 2.1l-2.9 5.3c-3.5 6.6-21.1 39.9-21.1 53.1v1.3l.3.8 8.1 21.8c-2.8 25.8-3.4 41-1.7 45.4.4 1.1 1.6 4.1 9.5 14.7l-5.6 45.7-.3 2.8 2.3 1.7 5.8 4.1 4.3 3.1 28.5 20.4c2.3 1.6 5 2.5 7.7 2.5s5.5-.9 7.7-2.5l35.2-25.2 3.5-2.5 2.3-1.7-.3-2.8-5.6-45.8c7.8-10.4 9-13.5 9.4-14.5 1.7-4.4 1.1-19.7-1.7-45.4l8.1-21.8.3-.8v-1.3c0-13.2-17.6-46.5-21.1-53.1l-2.9-5.3c-.5-.9-1.2-1.6-2-2.1-.5-.5-1.5-.8-2.4-.8z"/><path d="m39.7 139.9 10.4-3c.2-.1.4-.2.6-.4l9.9-11.3c.2-.2.4-.3.6-.4s.5-.1.7 0 .4.2.6.4c.1.2.2.4.2.7l1.7 32.3c0 .3-.1.5-.2.7-.7 1-2.7 4.1-2.7 6 0 2.4 3.6 5.6 7.1 8.1 0-.1.1-.2.1-.3 1.2-2.2 2.8-2.6 3.6-.9.3 1.3.4 2.5.3 3.8h.1v3c0 .2 0 .4-.1.5-.6 1.3-3.7 6.8-10.4 6.8-2.8 0-9.8-.9-12.9-9.4-3.8-10.5-3.9-25.3-3.9-25.9v-1l-.6-.8c-1.7-2-3.6-4.6-5.7-7.3-.1-.2-.2-.3-.2-.5s0-.4 0-.5c.1-.2.1-.3.3-.5.2 0 .4-.1.5-.1z"/><path d="m103.4 149-.6.8v1c0 .6 0 15.4-3.9 25.9-3.1 8.5-10.1 9.4-12.9 9.4-6.6 0-9.7-5.5-10.4-6.8-.1-.2-.1-.3-.1-.5v-3c-.1-1.3 0-2.6.3-3.8.7-1.7 2.3-1.3 3.6.9 0 .1.1.2.1.3 3.5-2.5 7.1-5.7 7.1-8.1 0-1.9-2-5-2.7-6-.1-.2-.2-.5-.2-.7l1.7-32.3c0-.2.1-.5.2-.7s.3-.3.6-.4c.2-.1.5-.1.7 0s.4.2.6.4l9.9 11.3c.1.2.3.3.6.4l10.3 3c.2.1.4.2.5.3s.2.3.3.5.1.4 0 .6-.1.4-.2.5c-1.9 2.4-3.9 4.9-5.5 7z"/><path d="m52.2 115c-.1.4-.3.8-.6 1.1s-.8.5-1.2.5c.2.7.6 1.4 1.2 1.8s1.4.6 2.2.5c.5-.1 1-.3 1.4-.6s.7-.7.9-1.1c.3-.7.4-1.4.2-2.1s-.7-1.3-1.3-1.7h5 .1v.1c0 .9-.1 1.8-.4 2.7s-.8 1.7-1.4 2.3c-.6.7-1.4 1.2-2.2 1.6s-1.8.6-2.7.6-1.8-.2-2.7-.5c-.9-.4-1.6-.9-2.3-1.5s-1.1-1.4-1.5-2.3c-.3-.9-.5-1.8-.5-2.7v-.3h5.3-.1c.2.2.4.5.5.7s.1.6.1.9z"/><path d="m48.8 108.1c-.2 0-.3 0-.5-.1s-.3-.2-.4-.3c-1.5-1.8-6-7.7 1.8-7.7 5.9 0 10.5 3.6 13.1 6.1.2.2.3.4.3.6s0 .5-.1.7-.2.4-.4.5-.4.2-.7.2z"/><path d="m96.4 113.5c-.1 0-.1 0 0 0h5.2v.3c0 1.8-.7 3.5-2 4.8s-3 2-4.9 2c-1.8 0-3.5-.7-4.8-2s-2-3-2-4.9v-.1h5.2c-.6.4-1 .9-1.3 1.6-.2.7-.2 1.4 0 2 .2.5.5.9 1 1.3.4.3.9.5 1.5.6.8.1 1.5-.1 2.2-.5.6-.4 1.1-1.1 1.2-1.8-.4 0-.9-.2-1.2-.5s-.5-.7-.6-1.1c0-.3 0-.6.1-.8-0-.5.2-.7.4-.9z"/><path d="m86 108.1c-.2 0-.5-.1-.7-.2s-.4-.3-.4-.5c-.1-.2-.1-.5-.1-.7s.2-.4.3-.6c2.6-2.6 7.3-6.1 13.1-6.1 7.8 0 3.3 6 1.8 7.7-.1.1-.3.2-.4.3-.2.1-.3.1-.5.1z"/><path d="m85.9 190.7c-.8 0-1.6-.1-2.4-.3-.2 0-.5 0-.7.1s-.4.2-.5.4c-.9 1.3-2.2 2.4-3.6 3.1s-3 1.1-4.6 1.1-3.2-.4-4.6-1.1-2.7-1.8-3.6-3.1c-.1-.2-.3-.3-.5-.4s-.4-.1-.7-.1c-.7.2-1.5.3-2.3.3h-.7c-.2 0-.4 0-.6.1s-.4.2-.5.4-.2.4-.2.6 0 .4.1.6c1.3 2.5 3.3 4.5 5.7 5.9s5.1 2.2 7.9 2.2 5.5-.8 7.9-2.2 4.4-3.5 5.7-5.9c.1-.2.2-.4.1-.6 0-.2-.1-.4-.2-.6s-.3-.3-.5-.4-.4-.1-.6-.1zm-8.6-13.6c.9.3 1.7.7 2.4 1.2-.7-1.2-1.7-1.6-2.4-1.2zm-8.8 1.1c.7-.5 1.5-.8 2.3-1.1-.7-.4-1.5 0-2.3 1.1z"/><path d="m70.4 174.6c-.9.3-1.7.7-2.5 1.2.8-1.2 1.8-1.6 2.5-1.2z"/><path d="m80.4 176c-.8-.6-1.8-1-2.7-1.4.7-.5 1.8 0 2.7 1.4z"/><path d="m69.3 188.9c-.1 0-.2 0-.3.1s-.1.1-.2.2 0 .2 0 .3.1.2.2.2c1.4 1.1 3.2 1.7 5.1 1.7 1.8 0 3.6-.6 5.1-1.7.1-.1.1-.2.2-.2s0-.2 0-.3-.1-.2-.2-.2c-.1-.1-.2-.1-.3-.1z"/><path d="m28.2 61.7c.5-4.8 5-15.6 9.7-25.3.1-.2.2-.3.4-.4s.4-.1.6-.1.4.1.5.3c.1.1.2.3.3.5l.9 6.4v.3c-.5 3.6-2.7 16.2-8.4 25-.1.2-.2.3-.4.4s-.3.1-.5.1-.4-.1-.5-.2-.3-.3-.3-.4l-2.3-6c0-.3 0-.5 0-.6z"/><path d="m116 68.3c-5.6-8.8-7.8-21.4-8.3-25 0-.1 0-.2 0-.3l.9-6.4c0-.2.1-.4.3-.5.1-.1.3-.2.5-.3.2 0 .4 0 .6.1s.3.2.4.4c4.7 9.8 9.2 20.4 9.7 25.3v.4l-2.2 6c0 .2-.2.4-.3.5-.2.1-.3.2-.5.2s-.4 0-.6-.1c-.3.1-.4-.1-.5-.3z"/></g></g></svg>
