<svg viewBox="0 0 448 233" xmlns="http://www.w3.org/2000/svg" xmlns:xlink="http://www.w3.org/1999/xlink"><clipPath id="snyk-dark-a"><path d="m0 0h448v232.6h-448z"/></clipPath><clipPath id="b"><path d="m1 0h146v231.9h-146z"/></clipPath><g clip-path="url(#snyk-dark-a)"><g clip-path="url(#b)" fill="#030328"><path d="m142.9 51.8c-1.9-.5-3.9-1.1-6-1.6.7 2.5 1 5 1.1 7.6v1.8l-8.7 23.6c4.4 40.8 2.3 46.4 1.6 48.2-1.1 2.9-4.1 7.6-9.2 14.5l4.9 46 18-13c.7-.5 1.3-1.2 1.7-2s.6-1.7.6-2.6v-117c0-1.2-.4-2.4-1.1-3.4s-1.7-1.7-2.9-2.1z"/><path d="m147 174.4c0 .9-.2 1.8-.6 2.6s-1 1.5-1.7 2l-18 13-4.9-46c5-6.8 8-11.6 9.2-14.5.7-1.8 2.9-7.4-1.6-48.2l8.7-23.6v-1.8c-.1-2.6-.4-5.1-1.1-7.6 2.1.5 4.1 1 6 1.6 1.2.3 2.2 1.1 3 2.1.7 1 1.1 2.2 1.1 3.4z"/><path d="m59.2 54.3c9.6-2.8 19.9-2.8 29.5 0l1.1-1.9 1.3-8.6c-4.3-.2-11.7-.5-17-.5-5.8 0-11.5.2-17.2.5l1.3 8.6z"/><path d="m74.1 43.3c5.3 0 12.7.3 17 .5l-1.3 8.6-1.1 1.9c-9.6-2.8-19.9-2.8-29.5 0l-1.1-1.8-1.3-8.6c5.8-.4 11.5-.6 17.3-.6z"/><path d="m18.7 83.3-8.7-23.6v-1.8c.1-2.6.4-5.1 1.1-7.6-2.1.5-4.1 1-6 1.6-1.2.3-2.2 1.1-3 2.1-.7 1-1.1 2.2-1.1 3.4v117.1c0 .9.2 1.8.6 2.6s1 1.5 1.7 2l18.1 13.1 5-45.9c-5-6.9-8.1-11.7-9.2-14.6-.8-2-2.9-7.5 1.5-48.4z"/><path d="m21.5 192.1-18.1-13c-.7-.5-1.3-1.2-1.7-2s-.7-1.8-.7-2.7v-117c0-1.2.4-2.4 1.1-3.4s1.8-1.7 3-2.1c1.9-.5 3.9-1.1 6-1.6-.6 2.5-1 5-1.1 7.6v1.8l8.7 23.6c-4.4 40.8-2.3 46.4-1.6 48.2 1.1 2.9 4.2 7.7 9.2 14.6z"/><path d="m123.9 128.8c1.4-3.6.6-20.9-2.2-46.1v-.4l8.8-24v-.5c0-10.5-13.5-38.5-21.4-53.3l-2.1-3.8c-.1-.2-.3-.4-.6-.5-.2-.1-.5-.2-.8-.1-.3 0-.5.2-.7.4s-.3.4-.3.7l-7.6 53.8-4.9 8.2-1.3-.4c-5.4-1.9-11.1-2.9-16.9-3.1-5.7.1-11.4 1.2-16.8 3.1l-1.3.4-4.8-8.2-7.7-53.9c0-.3-.2-.5-.3-.7s-.5-.4-.7-.4c-.3 0-.5 0-.8.1s-.5.3-.6.6l-2.1 3.8c-8 14.9-21.4 42.9-21.4 53.3v.5l8.8 24v.4c-2.8 25.2-3.6 42.5-2.2 46.1 1.3 3.3 6.3 10.3 10.5 15.8l-6 56.4 6 4.4 4.5 3.3 29.8 21.6c1.5 1.1 3.3 1.7 5.1 1.7s3.6-.6 5.1-1.7l36.8-26.5 3.7-2.7-6.1-56.5c4.3-5.6 9.3-12.5 10.5-15.8zm-14.8-93.9 1-6.7c0-.2.1-.4.3-.6s.3-.3.6-.3c.2 0 .4 0 .6.1s.3.3.4.4c4.9 10.2 9.6 21.5 10.1 26.6 0 .2 0 .3-.1.4l-2.4 6.3c-.1.2-.2.3-.3.5s-.3.2-.5.2-.4 0-.5-.1-.3-.2-.4-.4c-5.9-9.3-8.2-22.5-8.7-26.3-.1.1-.1 0-.1-.1zm-23.4 66.1c2.7-2.7 7.6-6.4 13.7-6.4 8.1 0 3.5 6.3 1.9 8.2-.1.1-.3.3-.4.3s-.3.1-.5.1h-13.9c-.2 0-.5-.1-.7-.2s-.4-.3-.5-.6-.1-.5-.1-.7.3-.5.5-.7zm7 11.7c.2.5.6 1 1 1.3s1 .6 1.5.6c.8.1 1.6-.1 2.2-.5.7-.5 1.1-1.1 1.3-1.9-.5 0-.9-.2-1.2-.5s-.6-.7-.6-1.2c0-.3 0-.6.1-.9s.3-.5.5-.8l-.1-.1h5.5v.3c0 1-.1 1.9-.5 2.8-.3.9-.9 1.7-1.6 2.4s-1.5 1.2-2.4 1.6-1.8.6-2.8.6-1.9-.2-2.8-.6-1.7-1-2.3-1.7-1.2-1.5-1.5-2.4-.5-1.9-.4-2.8v-.2h5.4c-.6.4-1.1 1-1.4 1.7-.2.8-.2 1.6.1 2.3zm-44-18.1c6.1 0 11 3.7 13.7 6.4.2.2.3.4.3.7 0 .2 0 .5-.1.7s-.3.4-.5.6c-.2.1-.5.2-.7.2h-13.6c-.2 0-.4 0-.5-.1s-.3-.2-.4-.3c-1.7-1.9-6.4-8.2 1.8-8.2zm2.5 15.9c-.1.4-.3.9-.6 1.1s-.8.5-1.2.5c.2.8.6 1.5 1.3 2s1.5.7 2.3.6c.5-.1 1-.3 1.4-.6s.7-.7 1-1.2c.3-.7.4-1.5.2-2.2s-.7-1.4-1.4-1.8h5.3.1v.1c0 1-.1 1.9-.4 2.8s-.8 1.7-1.5 2.4-1.5 1.3-2.3 1.7c-.9.4-1.8.6-2.8.6s-1.9-.2-2.8-.6-1.7-.9-2.4-1.6-1.2-1.5-1.5-2.4-.5-1.9-.5-2.8v-.3h5.5l-.1.1c.2.2.4.5.5.7-.1.3-0 .6-.1.9zm-20.8-49c-.1.2-.2.3-.4.4s-.4.1-.5.1c-.2 0-.4-.1-.5-.2s-.3-.3-.3-.5l-2.3-6.3c-.1-.1-.1-.3-.1-.4.5-5.1 5.2-16.4 10.1-26.6.1-.2.2-.4.4-.5s.4-.1.6-.1.4.1.6.3.2.4.3.6l1 6.7v.3c-.8 3.6-3.1 16.9-8.9 26.2zm17.8 113.7c-4-11.1-4.1-26.5-4.1-27.2v-1l-.7-.8c-1.7-2.1-3.8-4.8-5.9-7.6-.1-.2-.2-.4-.2-.6s0-.4 0-.6.2-.4.3-.5.3-.2.5-.3l10.8-3.2c.2-.1.4-.2.6-.4l10.5-11.9c.2-.2.4-.3.6-.4s.5-.1.7 0 .4.2.6.4.2.4.2.7l1.8 34c0 .3-.1.5-.2.8-.7 1.1-2.8 4.3-2.8 6.3 0 2.5 3.7 5.9 7.4 8.5 0-.1.1-.2.1-.3 1.3-2.3 3-2.7 3.8-1 .3 1.3.4 2.7.3 4h.1v3.1c0 .2 0 .4-.1.6-.7 1.4-3.9 7.2-10.8 7.2-3 .1-10.2-.9-13.5-9.8zm30.8 12.9c.1 0 .2 0 .3.1s.2.1.2.2v.3c0 .1-.1.2-.2.3-1.5 1.2-3.4 1.8-5.3 1.8s-3.8-.6-5.3-1.8c-.1-.1-.1-.2-.2-.3s0-.2 0-.3.1-.2.2-.2c.1-.1.2-.1.3-.1zm9.2 3.7c-1.4 2.6-3.4 4.7-5.9 6.2s-5.3 2.3-8.3 2.3-5.8-.8-8.3-2.3-4.5-3.7-5.9-6.2c-.1-.2-.2-.4-.2-.7 0-.2.1-.4.2-.6s.3-.3.5-.5c.2-.1.4-.1.7-.1h.8c.8 0 1.6-.1 2.4-.3.2-.1.5 0 .7 0 .2.1.4.2.6.5 1 1.4 2.2 2.5 3.7 3.3s3.1 1.2 4.8 1.2 3.3-.4 4.8-1.2 2.8-1.9 3.7-3.3c.1-.2.4-.4.6-.5s.5-.1.7 0c.8.2 1.7.3 2.5.3h.7c.2 0 .4 0 .6.1s.4.3.5.4c.1.2.2.4.2.6 0 .4 0 .6-.1.8zm22.3-53.2c-2.1 2.8-4.2 5.4-5.9 7.6l-.6.8v1.1c0 .7 0 16.1-4.1 27.2-3.2 8.9-10.5 9.9-13.4 9.9-6.9 0-10.1-5.8-10.8-7.2-.1-.2-.1-.4-.1-.6v-3.1h.1c-.1-1.3 0-2.7.3-4 .8-1.8 2.4-1.4 3.8 1 0 .1.1.2.1.3 3.7-2.7 7.4-6 7.4-8.5 0-2-2.1-5.2-2.8-6.3-.2-.2-.2-.5-.2-.8l1.8-34c0-.3.1-.5.2-.7.2-.2.4-.4.6-.4.2-.1.5-.1.7 0s.5.2.6.4l10.3 11.8c.2.2.4.3.6.4l10.8 3.2c.2.1.3.2.5.3.1.1.2.3.3.5s.1.4 0 .6c0 .1 0 .3-.2.5z"/></g></g><path clip-path="url(#a)" d="m403.5 124.4h-1.7v30h-21.5v-74.7l21.5-33.7v69.7c4.3-5.3 18.7-25.2 18.7-25.2h26.6l-25.2 26.7 26.1 37.3h-27.2zm-60-4.9 8.8-28.8h21.3l-25 63.5c-7.5 19.1-18.1 32-34.1 32-6.1 0-11.3-1.6-14-3.1l8.6-13.3c1.3.2 2.6.2 3.9.2 7.4 0 12.9-7.1 16.4-15.6l-26.2-63.7h24.2l9.4 28.4c1.8 5.4 3.2 15.7 3.2 15.7s1.7-9.9 3.5-15.3zm-65.1-1.5c0-8.3-3.7-12.2-10.7-12.2-3.4 0-7 1-9.4 2.4v46.2h-21.6v-63.1l21.1-1.7-.5 10.3h.7c4.5-6.1 12.3-10.8 21.4-10.8 11 0 20.6 6.8 20.6 23v42.3h-21.7zm-103.4 33.1 1.9-14.7c6.7 3.3 14.3 4.9 20.7 4.9 4.6 0 7.7-1.6 7.7-4.4 0-8.1-29.1-6.1-29.1-27.2 0-13.5 12.4-20.6 27.8-20.6 7.7 0 15.7 2.1 20.8 3.9l-2.1 14.4c-5.4-2.1-12.8-4-18.9-4-3.8 0-6.8 1.3-6.8 3.8 0 8 29.7 6.4 29.7 26.9 0 13.7-12.2 21.5-28.8 21.5-9.1.2-16.5-1.4-22.9-4.5z" fill="#030328"/></svg>
