<svg viewBox="0 0 539.13 170.7" xmlns="http://www.w3.org/2000/svg"><path d="m119 91.9 9.2-4.8v-72h-6.9l-17 22.5h-1.8l1-25h73.5l1 25h-2l-16.6-22.6h-7.1v72l9.2 4.8v2.5h-42.5zm69.3-3.2v-79.7l-7.1-3v-1.4l25.7-4.6h2.7v37.7l.7-.6c5.7-5 13.9-8.1 22-8.1 11.3 0 16.3 6.3 16.3 18.2v41.5l6 3.3v2.4h-33.6v-2.4l6-3.3v-41.7c0-6.5-2.8-9.1-8.1-9.1-3.26-.08-6.44.98-9 3v48l6 3.2v2.3h-33.6v-2.4l6-3.4zm87.2-27.5 19-1.2c0-16.3-2.7-27.2-8.3-27.2-6 0-10.7 12.6-10.7 28.4zm.4 3c.7 13.2 6.6 23.4 20.6 23.4 6.7 0 11.5-3.1 16-5.5v2.6c-6.05 7.39-15.15 11.62-24.7 11.5-21.7 0-32.7-12-32.7-33 0-20.4 12-33 31.7-33 18.4 0 28 9.1 28 33.4v.6h-39zm-275.9 62c0-34.7 23-47 48.6-47 9.1-.24 18.17 1.11 26.8 4l.5 24.3h-2.4l-15-23.5c-3.05-1.21-6.33-1.72-9.6-1.5-13.6 0-20.5 15.7-20.3 41.5.3 30.8 5.6 44.8 18 44.8 3.3 0 5.8-.5 7.6-1.2v-33l-8.3-4.8v-2.7h39.9v3l-8.1 4.5v32.4c-9.66 3.46-19.84 5.21-30.1 5.2-29.1.1-47.6-13.4-47.6-46m85.4-16.2v-2l26.8-4.7 3 .2v52.8c0 6.4 3 8.3 8.1 8.3 3.36.07 6.56-1.41 8.7-4v-47.4l-7.3-3.2v-2l26.7-4.8 2.7.2v60.6l7.3 3v2l-26.5 3.2-2.7-.2v-8h-.7c-5.35 5.26-12.5 8.29-20 8.5-13 0-18.8-7.6-18.8-19.1v-40.1l-7.3-3.2zm171.3-6.8 2.2.2v19.5h.6c2.9-14.3 9.2-19.6 16.9-19.6 1.2 0 2.5 0 3.3.5v20c-6.76-1.26-13.74-.43-20 2.4v38.6l6 3.4v2.5h-34.7v-2.5l6.2-3.4v-52.8l-7.3-2.2v-1.8l26.8-5z"/><path d="m323.9 161.5v-53c-1.7-1-3-2.4-7.4-2.2-7.2.2-11.7 11.1-11.7 30.6 0 17.5 3.2 27.3 12.9 27 2.28-.05 4.48-.9 6.2-2.4m0-56.7v-20.6l-7.3-2.6v-1.6l27-5 2.6.4v88.5l7.5 2.7v2.3l-26.7 3.6-2-.3v-7.2h-.7c-4 4-9.3 7.5-17.7 7.5-14.6 0-25.2-11.1-25.2-33.9 0-24 12.3-35.8 31-35.8 5.4 0 9.5 1 11.5 2.1m61.9-18.4c0 6.5-5.5 11.4-11.8 11.4-6.6 0-11.8-5-11.8-11.4 0-6.5 5.2-11.5 11.8-11.5 6.3 0 11.8 5 11.8 11.5zm-2.4 16.6 2.3.2v61.5l6.1 3.4v2.5h-34.7v-2.5l6.2-3.4v-51.8l-7.4-3v-2l27.5-5zm86.2 61.7v-52.3l-7.4-2.6v-2.5l26.7-5 2.7.3v7.8h.7c6.35-5.45 14.43-8.47 22.8-8.5 11.6 0 16.7 5.5 16.7 17.8v44.9l6.3 3.5v2.5h-34.8v-2.5l6.3-3.4v-43.8c0-6.7-3-9.4-8.5-9.4-3.3-.07-6.54.95-9.2 2.9v50.3l6.2 3.4v2.5h-34.8v-2.5zm-38.6-3.3v-26.5l-4.4.4c-7 .6-9.5 5-9.5 15 0 10.6 3.5 13.4 8.4 13.4 2.8 0 4.3-.9 5.5-2.3zm0-29.6v-8.8c0-13.2-2.9-17.5-11-17.5l-2.8.2-14.5 19.7h-2v-18.1c6.2-2 14-4.2 24.3-4.2 17.8 0 28.1 5 28.1 19.8v42.8l6.4 1.7v1.7c-4.03 2.03-8.49 3.06-13 3-8.9 0-13-3-15-7.7h-.6c-3.7 5-9 8-17.3 8-10.6 0-17.8-6.7-17.8-18.1 0-11 6.9-17 20.8-19.7zm-232.2 29.6v-26.5l-4.4.4c-7 .6-9.5 5-9.5 15 0 10.6 3.5 13.4 8.4 13.4 2.7 0 4.3-.9 5.5-2.3zm0-29.6v-8.8c0-13.2-2.9-17.5-11-17.5l-2.8.2-14.5 19.7h-2v-18.1c6.2-2 14-4.2 24.3-4.2 17.8 0 28.1 5 28.1 19.8v42.8l6.4 1.7v1.7c-4.06 2.05-8.55 3.08-13.1 3-8.8 0-13-3-15-7.7h-.5c-3.7 5-9 8-17.3 8-10.6 0-17.8-6.7-17.8-18.1 0-11 6.9-17 20.8-19.7z"/></svg>
