<svg fill="currentColor" viewBox="0 0 512 140" xmlns="http://www.w3.org/2000/svg"><title>Tidepool</title><path d="m151.45 45.6894h-16.3v-8.8214h41.957v8.8214h-16.386v54.0961h-9.271z"></path><path d="m188.268 36.4222c3.239 0 6.032 2.5158 6.032 5.7641s-2.793 5.8491-6.032 5.8491-6.032-2.5158-6.032-5.8491c0-3.3332 2.793-5.7641 6.032-5.7641zm-4.503 19.7127h9.09v43.6505h-9.09z"></path><path d="m238.869 94.4778c-3.961 4.2355-9.451 6.6562-15.483 6.6562-12.52 0-22.779-10.3504-22.779-23.2163 0-12.8658 10.259-23.1309 22.779-23.1309 5.766 0 10.981 2.2505 14.857 6.0295v-28.5341h9.09v67.5033h-8.464zm-14.591-1.8047c8.103 0 14.591-6.3904 14.591-14.7554 0-8.3649-6.488-14.6704-14.591-14.6704-8.102 0-14.591 6.3904-14.591 14.6704 0 8.2801 6.478 14.7554 14.591 14.7554z"></path><path d="m253.269 77.8222c0-12.9614 9.812-23.2159 22.779-23.2159 12.966 0 22.874 9.8087 22.874 22.4091 0 1.2633-.181 2.5159-.266 3.1528h-36.286c.987 7.5582 6.934 12.781 14.134 12.781 5.767 0 9.451-2.3461 11.703-5.9447h9.993c-3.335 8.1951-10.715 14.3095-21.696 14.3095-12.786 0-23.224-10.2544-23.224-23.4918zm36.106-4.8618c-1.529-6.0296-6.489-10.1696-13.327-10.1696-6.839 0-11.618 4.14-13.232 10.1696z"></path><path d="m304.943 56.135h8.464v5.3076c3.961-4.14 9.451-6.6558 15.483-6.6558 12.52 0 22.778 10.35 22.778 23.1309 0 12.781-10.258 23.2163-22.778 23.2163-5.767 0-10.981-2.2508-14.857-6.0299v20.8809h-9.09zm23.055 36.5381c8.102 0 14.591-6.3904 14.591-14.7554 0-8.3649-6.478-14.6704-14.591-14.6704-8.114 0-14.591 6.3904-14.591 14.6704 0 8.2801 6.488 14.7554 14.591 14.7554z"></path><path d="m357.35 77.9177c0-12.9614 10.8-23.3114 24.042-23.3114s24.042 10.35 24.042 23.3114-10.8 23.3963-24.042 23.3963-24.042-10.4349-24.042-23.3963zm24.042 14.851c8.379 0 14.856-6.3905 14.856-14.851 0-8.4604-6.488-14.766-14.856-14.766s-14.942 6.3905-14.942 14.766c0 8.3756 6.574 14.851 14.942 14.851z"></path><path d="m411.094 77.9177c0-12.9614 10.8-23.3114 24.043-23.3114 13.242 0 24.042 10.35 24.042 23.3114s-10.8 23.3963-24.042 23.3963c-13.243 0-24.043-10.4349-24.043-23.3963zm24.043 14.851c8.378 0 14.856-6.3905 14.856-14.851 0-8.4604-6.488-14.766-14.856-14.766s-14.942 6.3905-14.942 14.766c0 8.3756 6.574 14.851 14.942 14.851z"></path><path d="m466.91 32.2822h9.09v67.5033h-9.09z"></path><path d="m41.1684 62.0607c-7.2595 0-13.1684-5.9399-13.1684-13.2375s5.9089-13.2375 13.1684-13.2375 13.1685 5.9399 13.1685 13.2375-5.909 13.2375-13.1685 13.2375zm0-21.1715c-4.3578 0-7.9031 3.564-7.9031 7.9446 0 4.3807 3.5453 7.9446 7.9031 7.9446s7.9032-3.5639 7.9032-7.9446c0-4.3806-3.5454-7.9446-7.9032-7.9446z"></path><path d="m41.1684 104.414c-7.2595 0-13.1684-5.9396-13.1684-13.2372s5.9089-13.2375 13.1684-13.2375 13.1685 5.9399 13.1685 13.2375-5.909 13.2372-13.1685 13.2372zm0-21.1712c-4.3578 0-7.9031 3.5639-7.9031 7.9446s3.5453 7.9446 7.9031 7.9446 7.9032-3.5639 7.9032-7.9446-3.5454-7.9446-7.9032-7.9446z"></path><path d="m83.3011 62.0607c-7.2596 0-13.1685-5.9399-13.1685-13.2375s5.9089-13.2375 13.1685-13.2375c7.2595 0 13.1684 5.9399 13.1684 13.2375s-5.9089 13.2375-13.1684 13.2375zm0-21.1715c-4.3579 0-7.9032 3.564-7.9032 7.9446 0 4.3807 3.5453 7.9446 7.9032 7.9446 4.3578 0 7.9031-3.5639 7.9031-7.9446 0-4.3806-3.5453-7.9446-7.9031-7.9446z"></path><path d="m83.3011 104.414c-7.2596 0-13.1685-5.9396-13.1685-13.2372s5.9089-13.2375 13.1685-13.2375c7.2595 0 13.1684 5.9399 13.1684 13.2375s-5.9089 13.2372-13.1684 13.2372zm0-21.1712c-4.3579 0-7.9032 3.5639-7.9032 7.9446s3.5453 7.9446 7.9032 7.9446c4.3578 0 7.9031-3.5639 7.9031-7.9446s-3.5453-7.9446-7.9031-7.9446z"></path><path d="m41.1684 95.1438c2.1795 0 3.9463-1.7761 3.9463-3.967s-1.7668-3.967-3.9463-3.967-3.9463 1.7761-3.9463 3.967 1.7668 3.967 3.9463 3.967z"></path><path d="m83.3011 25c-13.063 0-23.699 10.6918-23.699 23.8232 0 10.2145-8.2725 18.5304-18.4337 18.5304v5.2928c13.0629 0 23.699-10.6918 23.699-23.8232 0-10.2145 8.2724-18.5303 18.4337-18.5303 10.1612 0 18.4339 8.3158 18.4339 18.5303 0 4.9535-1.9207 9.5993-5.4027 13.0996l3.7247 3.7443c4.474-4.4974 6.943-10.4797 6.943-16.8439 0-13.1314-10.636-23.8232-23.6989-23.8232z"></path><path d="m83.3011 115c-13.063 0-23.699-10.692-23.699-23.8232 0-13.1314 10.636-23.8232 23.699-23.8232 13.0629 0 23.6989 10.6918 23.6989 23.8232 0 13.1312-10.636 23.8232-23.6989 23.8232zm0-42.3536c-10.1613 0-18.4337 8.3159-18.4337 18.5304 0 10.2142 8.2724 18.5302 18.4337 18.5302 10.1612 0 18.4339-8.316 18.4339-18.5302 0-10.2145-8.2727-18.5304-18.4339-18.5304z"></path></svg>
